<?xml version="1.0" encoding="UTF-8"?>
<svg xmlns="http://www.w3.org/2000/svg" viewBox="0 0 730.85 303.97">
  <defs>
    <style>
      .cls-1 {
        fill: #180930;
      }

      .cls-2 {
        fill: #bd83ea;
      }

      .cls-3, .cls-4 {
        fill: #f7f5eb;
      }

      .cls-4 {
        font-family: JollyLodger, 'Jolly Lodger';
        font-size: 67.89px;
      }
    </style>
  </defs>
  <g id="BACKGROUND">
    <rect class="cls-1" x="217.57" width="353.77" height="303.97"/>
  </g>
  <g id="OBJECTS">
    <g>
      <path class="cls-3" d="M486.36,94.61s-.54.87-.13,2.31c.41,1.43,3.7,4.63,4.99,7.02l1.82-3.66,1.23,2.65,2.2-1.93.19,4.08c2.15-1.66,6.45-3.26,7.4-4.4.96-1.15.82-2.16.82-2.16,10.35-4.14,14.89,2.52,14.89,2.52-7.02-4.85-10.34,2.25-10.34,2.25-13.79-.7-16.87,7.82-16.87,7.82,0,0,.63-9.04-12.27-13.97,0,0-.18-7.83-8.55-6.24,0,0,6.84-4.26,14.64,3.71Z"/>
      <path class="cls-3" d="M267.28,97.9s-.02.84.86,1.69,4.53,1.77,6.42,2.94l-.21-3.35,1.96,1.38.77-2.27,1.81,2.82c.84-2.06,3.25-4.96,3.45-6.16s-.31-1.87-.31-1.87c5.66-7.19,11.61-4.31,11.61-4.31-6.97-.57-6.43,5.84-6.43,5.84-10.09,5.16-8.78,12.48-8.78,12.48,0,0-3.26-6.68-14.45-4.9,0,0-3.34-5.49-8.63-.92,0,0,3.11-5.83,11.92-3.37Z"/>
      <path class="cls-3" d="M447.14,80.33s-.09.39.38.77c.48.38,2.69.75,3.78,1.26l.18-1.54,1.11.61.69-1.06.88,1.28c.72-.96,2.5-2.33,2.74-2.89s-.02-.86-.02-.86c4.23-3.39,7.72-2.16,7.72-2.16-4.35-.16-4.59,2.78-4.59,2.78-6.84,2.52-6.68,5.88-6.68,5.88,0,0-1.44-3.03-8.66-2.05,0,0-1.6-2.48-5.36-.3,0,0,2.5-2.73,7.83-1.73Z"/>
      <path class="cls-3" d="M506.04,73.23s-.17.13-.1.45c.07.32.87,1.23,1.16,1.81l.6-.58.26.63.65-.21-.06.83c.63-.16,1.84-.13,2.13-.28s.28-.37.28-.37c2.92.01,3.97,1.71,3.97,1.71-1.77-1.54-2.87-.39-2.87-.39-3.72-1.26-4.79.2-4.79.2,0,0,.42-1.76-2.93-3.79,0,0,.17-1.58-2.14-1.94,0,0,1.97-.3,3.86,1.93Z"/>
      <path class="cls-3" d="M258.45,65.23s.12.18-.04.46c-.17.28-1.21.9-1.66,1.37l-.39-.74-.44.52-.55-.4-.19.81c-.55-.34-1.71-.69-1.94-.92-.23-.23-.16-.44-.16-.44-2.79-.88-4.3.42-4.3.42,2.15-.92,2.85.51,2.85.51,3.93-.06,4.5,1.65,4.5,1.65,0,0,.14-1.8,3.96-2.71,0,0,.32-1.56,2.64-1.19,0,0-1.79-.89-4.27.65Z"/>
      <path class="cls-3" d="M308.19,71.31s-.33.43-.2,1.21c.14.78,1.69,2.66,2.24,3.99l1.17-1.83.5,1.47,1.27-.89-.13,2.17c1.23-.75,3.59-1.35,4.16-1.9.57-.55.55-1.09.55-1.09,5.7-1.6,7.72,2.18,7.72,2.18-3.43-2.96-5.59.6-5.59.6-7.24-1.15-9.35,3.17-9.35,3.17,0,0,.85-4.74-5.68-8.08,0,0,.35-4.15-4.16-3.78,0,0,3.85-1.86,7.52,2.79Z"/>
    </g>
    <g>
      <path class="cls-2" d="M688.34,192.06c0,.21-.17.38-.38.38s-.38-.17-.38-.38.17-.38.38-.38.38.17.38.38Z"/>
      <path class="cls-2" d="M695.33,211.06c0,.3-.24.54-.54.54s-.54-.24-.54-.54.24-.54.54-.54.54.24.54.54Z"/>
      <path class="cls-2" d="M709.09,166.46c0,.12-.1.22-.22.22s-.22-.1-.22-.22.1-.22.22-.22.22.1.22.22Z"/>
      <path class="cls-2" d="M677.93,155.18c0,.16-.13.28-.28.28s-.28-.13-.28-.28.13-.28.28-.28.28.13.28.28Z"/>
      <path class="cls-2" d="M584.2,222.27c0,.2-.17.37-.37.37s-.37-.17-.37-.37.17-.37.37-.37.37.17.37.37Z"/>
      <path class="cls-2" d="M553.47,235.98c0,.23-.19.41-.41.41s-.41-.19-.41-.41.19-.41.41-.41.41.19.41.41Z"/>
      <path class="cls-2" d="M621.59,122.14c0,.18-.15.33-.33.33s-.33-.15-.33-.33.15-.33.33-.33.33.15.33.33Z"/>
      <path class="cls-2" d="M673.05,115.87c0,.24-.19.43-.43.43s-.43-.19-.43-.43.19-.43.43-.43.43.19.43.43Z"/>
      <path class="cls-2" d="M721.66,135.93c0,.18-.14.32-.32.32s-.32-.14-.32-.32.14-.32.32-.32.32.14.32.32Z"/>
      <path class="cls-2" d="M730.85,124.63c0,.28-.23.51-.51.51s-.51-.23-.51-.51.23-.51.51-.51.51.23.51.51Z"/>
      <path class="cls-2" d="M689.3,141.96c0,.26-.21.48-.48.48s-.48-.21-.48-.48.21-.48.48-.48.48.21.48.48Z"/>
      <path class="cls-2" d="M514.38,98.14c0,.22-.18.4-.4.4s-.4-.18-.4-.4.18-.4.4-.4.4.18.4.4Z"/>
      <circle class="cls-2" cx="596.18" cy="80.49" r=".52"/>
      <path class="cls-2" d="M586.85,102.67c0,.28-.23.51-.51.51s-.51-.23-.51-.51.23-.51.51-.51.51.23.51.51Z"/>
      <path class="cls-2" d="M461.23,188.78c0,.25-.2.45-.45.45s-.45-.2-.45-.45.2-.45.45-.45.45.2.45.45Z"/>
      <path class="cls-2" d="M487.15,197.24c0,.05-.04.1-.1.1s-.1-.04-.1-.1.04-.1.1-.1.1.04.1.1Z"/>
      <path class="cls-2" d="M40.72,145.44c0,.21-.17.38-.38.38s-.38-.17-.38-.38.17-.38.38-.38.38.17.38.38Z"/>
      <path class="cls-2" d="M5.2,138.24c0,.2-.16.37-.37.37s-.37-.16-.37-.37.16-.37.37-.37.37.16.37.37Z"/>
      <path class="cls-2" d="M30.63,212.44c0,.18-.14.32-.32.32s-.32-.14-.32-.32.14-.32.32-.32.32.14.32.32Z"/>
      <path class="cls-2" d="M123.83,227.65c0,.14-.11.25-.25.25s-.25-.11-.25-.25.11-.25.25-.25.25.11.25.25Z"/>
      <path class="cls-2" d="M145.82,239.17c0,.3-.24.54-.54.54s-.54-.24-.54-.54.24-.54.54-.54.54.24.54.54Z"/>
      <path class="cls-2" d="M171.72,226.51c0,.16-.13.29-.29.29s-.29-.13-.29-.29.13-.29.29-.29.29.13.29.29Z"/>
      <path class="cls-2" d="M246.38,194.08c0,.21-.17.38-.38.38s-.38-.17-.38-.38.17-.38.38-.38.38.17.38.38Z"/>
      <path class="cls-2" d="M234.43,196.62c0,.19-.15.34-.34.34s-.34-.15-.34-.34.15-.34.34-.34.34.15.34.34Z"/>
      <path class="cls-2" d="M239.73,128.39c0,.38-.31.7-.7.7s-.7-.31-.7-.7.31-.7.7-.7.7.31.7.7Z"/>
      <circle class="cls-2" cx="208.05" cy="95.52" r=".53"/>
      <path class="cls-2" d="M265.98,125.49c0,.33-.27.61-.61.61s-.61-.27-.61-.61.27-.61.61-.61.61.27.61.61Z"/>
      <circle class="cls-2" cx="296.98" cy="178.11" r=".43"/>
      <circle class="cls-2" cx="276.2" cy="222.32" r=".58"/>
      <path class="cls-2" d="M306.7,217.09c0,.3-.24.54-.54.54s-.54-.24-.54-.54.24-.54.54-.54.54.24.54.54Z"/>
      <path class="cls-2" d="M64.85,86.33c0,.23-.19.43-.43.43s-.43-.19-.43-.43.19-.43.43-.43.43.19.43.43Z"/>
      <path class="cls-2" d="M70.08,123.73c0,.21-.17.38-.38.38s-.38-.17-.38-.38.17-.38.38-.38.38.17.38.38Z"/>
      <path class="cls-2" d="M106.22,106.55c0,.33-.27.6-.6.6s-.6-.27-.6-.6.27-.6.6-.6.6.27.6.6Z"/>
      <path class="cls-2" d="M38.63,97.93c0,.33-.27.59-.59.59s-.59-.27-.59-.59.27-.59.59-.59.59.27.59.59Z"/>
      <path class="cls-2" d="M.85,86.33c0,.23-.19.43-.43.43s-.43-.19-.43-.43.19-.43.43-.43.43.19.43.43Z"/>
      <path class="cls-2" d="M132.6,41.31c0,.28-.23.51-.51.51s-.51-.23-.51-.51.23-.51.51-.51.51.23.51.51Z"/>
      <path class="cls-2" d="M132.6,64.63c0,.28-.23.51-.51.51s-.51-.23-.51-.51.23-.51.51-.51.51.23.51.51Z"/>
      <circle class="cls-2" cx="167.02" cy="13.86" r=".34"/>
      <circle class="cls-2" cx="548.4" cy="36.53" r=".49"/>
      <circle class="cls-2" cx="622.05" cy="45.07" r=".46"/>
      <path class="cls-2" d="M682.72,53.31c0,.52-.42.94-.94.94s-.94-.42-.94-.94.42-.94.94-.94.94.42.94.94Z"/>
      <path class="cls-2" d="M728.46,80.09c0,.27-.22.48-.48.48s-.48-.22-.48-.48.22-.48.48-.48.48.22.48.48Z"/>
    </g>
  </g>
  <g id="TEXTS">
    <text class="cls-4" transform="translate(320.44 155.47)"><tspan x="0" y="0">Arduino</tspan><tspan x="24.73" y="59.06">Night</tspan></text>
  </g>
</svg>