<?xml version="1.0" encoding="UTF-8"?>
<svg id="Layer_2" data-name="Layer 2" xmlns="http://www.w3.org/2000/svg" xmlns:xlink="http://www.w3.org/1999/xlink" viewBox="0 0 83.01 141.99">
  <defs>
    <style>
      .cls-1 {
        fill: url(#linear-gradient-15);
      }

      .cls-2 {
        fill: url(#linear-gradient-13);
      }

      .cls-3 {
        fill: url(#linear-gradient-2);
      }

      .cls-4 {
        fill: url(#linear-gradient-10);
      }

      .cls-5 {
        fill: url(#linear-gradient-12);
      }

      .cls-6 {
        fill: url(#linear-gradient-4);
      }

      .cls-7 {
        fill: url(#linear-gradient-3);
      }

      .cls-8 {
        fill: url(#linear-gradient-5);
      }

      .cls-9 {
        fill: url(#linear-gradient-8);
      }

      .cls-10 {
        fill: url(#linear-gradient-14);
      }

      .cls-11 {
        fill: url(#linear-gradient-20);
      }

      .cls-12 {
        fill: url(#linear-gradient-17);
      }

      .cls-13 {
        fill: url(#linear-gradient-7);
      }

      .cls-14 {
        fill: url(#linear-gradient-9);
      }

      .cls-15 {
        fill: url(#linear-gradient-11);
      }

      .cls-16 {
        fill: url(#linear-gradient-19);
      }

      .cls-17 {
        fill: url(#linear-gradient-6);
      }

      .cls-18 {
        fill: #5d4289;
      }

      .cls-19 {
        fill: url(#linear-gradient-21);
      }

      .cls-20 {
        fill: #6c4a99;
      }

      .cls-21 {
        fill: url(#linear-gradient-16);
      }

      .cls-22 {
        fill: url(#linear-gradient);
      }

      .cls-23 {
        fill: #777244;
      }

      .cls-24 {
        fill: url(#linear-gradient-18);
      }
    </style>
    <linearGradient id="linear-gradient" x1="26.19" y1="82.26" x2="10.26" y2="82.26" gradientUnits="userSpaceOnUse">
      <stop offset="0" stop-color="#100523" stop-opacity=".2"/>
      <stop offset="1" stop-color="#100523" stop-opacity=".1"/>
    </linearGradient>
    <linearGradient id="linear-gradient-2" x1="58.74" y1="122.4" x2="83.01" y2="122.4" gradientUnits="userSpaceOnUse">
      <stop offset="0" stop-color="#100523" stop-opacity=".2"/>
      <stop offset="1" stop-color="#100523" stop-opacity=".1"/>
    </linearGradient>
    <linearGradient id="linear-gradient-3" x1="23.39" y1="122.76" x2="0" y2="122.76" xlink:href="#linear-gradient-2"/>
    <linearGradient id="linear-gradient-4" x1="51.87" y1="80.3" x2="72.03" y2="80.3" xlink:href="#linear-gradient"/>
    <linearGradient id="linear-gradient-5" x1="39.03" y1="66.87" x2="39.03" y2="90.73" gradientUnits="userSpaceOnUse">
      <stop offset="0" stop-color="#100523" stop-opacity=".1"/>
      <stop offset="1" stop-color="#100523" stop-opacity=".1"/>
    </linearGradient>
    <linearGradient id="linear-gradient-6" x1="40.99" y1="97.61" x2="40.99" y2="110.63" xlink:href="#linear-gradient"/>
    <linearGradient id="linear-gradient-7" x1="42.19" y1="41.33" x2="42.19" y2="53.67" gradientUnits="userSpaceOnUse">
      <stop offset="0" stop-color="#100523" stop-opacity=".1"/>
      <stop offset="1" stop-color="#100523" stop-opacity=".1"/>
    </linearGradient>
    <linearGradient id="linear-gradient-8" x1="39.27" y1="135.46" x2="39.27" y2="140.43" xlink:href="#linear-gradient-7"/>
    <linearGradient id="linear-gradient-9" x1="37.23" y1="129.06" x2="37.23" y2="122.33" gradientUnits="userSpaceOnUse">
      <stop offset="0" stop-color="#f3e697"/>
      <stop offset="1" stop-color="#f3e697" stop-opacity="0"/>
    </linearGradient>
    <linearGradient id="linear-gradient-10" x1="44.74" x2="44.74" xlink:href="#linear-gradient-9"/>
    <linearGradient id="linear-gradient-11" x1="44.74" y1="121.66" x2="44.74" y2="113.31" xlink:href="#linear-gradient-9"/>
    <linearGradient id="linear-gradient-12" y1="135.15" y2="129.73" xlink:href="#linear-gradient-9"/>
    <linearGradient id="linear-gradient-13" y1="121.66" y2="113.31" xlink:href="#linear-gradient-9"/>
    <linearGradient id="linear-gradient-14" x1="44.74" y1="135.15" x2="44.74" y2="129.73" xlink:href="#linear-gradient-9"/>
    <linearGradient id="linear-gradient-15" x1="41.51" y1="50.86" x2="41.51" y2="44.14" xlink:href="#linear-gradient-9"/>
    <linearGradient id="linear-gradient-16" x1="39.28" y1="88.32" x2="39.28" y2="69.95" xlink:href="#linear-gradient-9"/>
    <linearGradient id="linear-gradient-17" x1="21.52" y1="87.02" x2="21.52" y2="73.67" xlink:href="#linear-gradient-9"/>
    <linearGradient id="linear-gradient-18" x1="18.4" y1="87.02" x2="18.4" y2="73.67" xlink:href="#linear-gradient-9"/>
    <linearGradient id="linear-gradient-19" x1="57.11" y1="87.58" x2="57.11" y2="73.42" xlink:href="#linear-gradient-9"/>
    <linearGradient id="linear-gradient-20" x1="61.83" y1="87.58" x2="61.83" y2="73.67" xlink:href="#linear-gradient-9"/>
    <linearGradient id="linear-gradient-21" x1="41.51" y1="0" x2="41.51" y2="141.99" gradientUnits="userSpaceOnUse">
      <stop offset="0" stop-color="#d777dd" stop-opacity=".4"/>
      <stop offset=".76" stop-color="#d777dd" stop-opacity="0"/>
    </linearGradient>
  </defs>
  <g id="OBJECTS">
    <g>
      <path class="cls-18" d="M81.79,128.19v-18.85h1.22l-10.04-20.09h-8.11l7.17-18.01h6.24c-5.67-8.32-7.03-22.03-7.03-22.03l.22-12.2-.9.57-1.45,11.62h-16.24v-7.89h5.1l-3.8-14.13L42.12,0l-12.05,27.19-3.8,14.13h5.24v2.37H15.46l-.36-12.34-1.33,11.16.79,1.18h-.86c0,13.92-11.77,26.26-11.77,26.26h8.32l6.17,22.89-11.12,3.3-4.59,14.49h5.31l3.39,17.98H1.96v-17.74h-.86v22.39l-.45.04-.65,1.58h23.39v.72l-18.51,4.52v1.86h68.78v-1.55l-14.92-4.97h24.27v-3.16h-1.22v-4.11ZM5.79,129.24v3.59l-1.72.16v-3.75h1.72ZM1.96,129.24h1.29v3.83l-1.29.12v-3.95ZM6.6,132.76v-3.52h2.94l.6,3.2-3.54.32ZM80.93,132.3h-1.82v-4.11h1.82v4.11ZM73.8,128.19h1.94v4.11h-1.94v-4.11ZM72.99,132.3h-1.72v-4.11h1.72v4.11ZM76.55,128.19h1.75v4.11h-1.75v-4.11ZM74.71,109.34h6.22v18.22h-11.46l5.24-18.22ZM69.29,128.19h1.16v4.11h-2.34l1.18-4.11Z"/>
      <g>
        <polygon class="cls-22" points="26.19 69.95 26.19 90.73 20.3 91.05 16.72 94.56 16.43 92.84 10.26 69.95 26.19 69.95"/>
        <path class="cls-3" d="M58.74,135.46h24.27v-3.16h-1.22v-22.96h-.86v18.22h-11.46l5.24-18.22h-15.59l-.38,26.12ZM79.11,128.19h1.82v4.11h-1.82v-4.11ZM76.55,128.19h1.75v4.11h-1.75v-4.11ZM73.8,128.19h1.94v4.11h-1.94v-4.11ZM71.27,128.19h1.72v4.11h-1.72v-4.11ZM69.29,128.19h1.16v4.11h-2.34l1.18-4.11Z"/>
        <path class="cls-7" d="M19.91,110.63H6.03l3.39,17.98H1.96v-17.74h-.86v22.39l-.45.04-.65,1.58h23.39l-3.48-24.25ZM3.25,133.07l-1.29.12v-3.95h1.29v3.83ZM5.79,132.84l-1.72.16v-3.75h1.72v3.59ZM6.6,132.76v-3.52h2.94l.6,3.2-3.54.32Z"/>
        <polygon class="cls-6" points="51.87 71.25 51.87 89.36 57.9 89.04 58.83 89.25 64.86 89.25 72.03 71.25 51.87 71.25"/>
        <polygon class="cls-8" points="26.26 66.87 26.19 90.73 51.87 89.36 51.87 66.87 26.26 66.87"/>
        <polygon class="cls-17" points="18.47 97.61 63.5 97.65 59.12 109.34 59.12 110.63 19.91 110.63 18.47 97.61"/>
        <polygon class="cls-13" points="31.5 41.33 52.88 41.33 52.73 53.67 31.5 53.67 31.5 41.33"/>
        <polygon class="cls-9" points="4.88 140.12 73.66 140.43 58.74 135.46 23.39 135.6 4.88 140.12"/>
      </g>
      <g>
        <polygon class="cls-20" points="52.88 41.33 57.97 41.33 54.17 27.19 42.12 0 30.06 27.19 26.26 41.33 31.5 41.33 52.88 41.33"/>
        <path class="cls-20" d="M52.73,53.67l7.32,14.06h-8.18v3.52h26.4c-5.67-8.32-7.03-22.03-7.03-22.03h-18.37l-.14,4.45Z"/>
        <path class="cls-20" d="M26.19,69.95v-2.37h-6.67l7.89-15.07h4.09v-8.83H13.7c0,13.92-11.77,26.26-11.77,26.26h24.25Z"/>
        <polygon class="cls-20" points="51.97 53.67 27.74 53.67 21.43 66.87 58.28 66.87 51.97 53.67"/>
        <polygon class="cls-20" points="13.42 97.22 65.15 97.22 57.9 89.04 20.3 91.05 13.42 97.22"/>
        <polygon class="cls-20" points="12.59 97.61 16.43 92.84 5.31 96.14 .72 110.63 19.91 110.63 18.47 97.61 12.59 97.61"/>
        <polygon class="cls-20" points="72.97 89.25 58.83 89.25 66.29 97.65 63.14 97.65 59.12 109.34 83.01 109.34 72.97 89.25"/>
        <polygon class="cls-20" points="27.55 99.8 20.59 110.63 59.12 110.63 52.09 99.8 27.55 99.8"/>
      </g>
      <g>
        <g>
          <g>
            <rect class="cls-23" x="33.8" y="122.33" width="6.85" height="6.73"/>
            <rect class="cls-23" x="41.32" y="122.33" width="6.85" height="6.73"/>
            <path class="cls-23" d="M41.32,121.66h6.85v-1.18c0-3.86-3.04-6.99-6.85-7.17v8.35Z"/>
            <rect class="cls-23" x="33.8" y="129.73" width="6.85" height="5.42"/>
            <path class="cls-23" d="M40.65,121.66v-8.35c-3.81.18-6.85,3.31-6.85,7.17v1.18h6.85Z"/>
            <rect class="cls-23" x="41.32" y="129.73" width="6.85" height="5.42"/>
          </g>
          <g>
            <rect class="cls-14" x="33.8" y="122.33" width="6.85" height="6.73"/>
            <rect class="cls-4" x="41.32" y="122.33" width="6.85" height="6.73"/>
            <path class="cls-15" d="M41.32,121.66h6.85v-1.18c0-3.86-3.04-6.99-6.85-7.17v8.35Z"/>
            <rect class="cls-5" x="33.8" y="129.73" width="6.85" height="5.42"/>
            <path class="cls-2" d="M40.65,121.66v-8.35c-3.81.18-6.85,3.31-6.85,7.17v1.18h6.85Z"/>
            <rect class="cls-10" x="41.32" y="129.73" width="6.85" height="5.42"/>
          </g>
        </g>
        <g>
          <path class="cls-23" d="M44.87,47.5c0,1.86-1.5,3.36-3.36,3.36s-3.36-1.5-3.36-3.36,1.5-3.36,3.36-3.36,3.36,1.5,3.36,3.36Z"/>
          <path class="cls-1" d="M44.87,47.5c0,1.86-1.5,3.36-3.36,3.36s-3.36-1.5-3.36-3.36,1.5-3.36,3.36-3.36,3.36,1.5,3.36,3.36Z"/>
        </g>
        <g>
          <path class="cls-23" d="M43.01,88.32h-7.46v-14.64c0-.93.34-1.79.91-2.44.68-.79,1.69-1.29,2.82-1.29h0c1.03,0,1.96.42,2.64,1.09.68.68,1.09,1.61,1.09,2.64v14.64Z"/>
          <path class="cls-21" d="M43.01,88.32h-7.46v-14.64c0-.93.34-1.79.91-2.44.68-.79,1.69-1.29,2.82-1.29h0c1.03,0,1.96.42,2.64,1.09.68.68,1.09,1.61,1.09,2.64v14.64Z"/>
        </g>
        <g>
          <polygon class="cls-23" points="23.39 86.47 22.1 73.67 19.64 73.67 21.52 87.02 23.39 86.47"/>
          <polygon class="cls-12" points="23.39 86.47 22.1 73.67 19.64 73.67 21.52 87.02 23.39 86.47"/>
        </g>
        <g>
          <polygon class="cls-23" points="20.67 87.02 18.58 86.47 16.12 73.67 18.91 73.67 20.67 87.02"/>
          <polygon class="cls-24" points="20.67 87.02 18.58 86.47 16.12 73.67 18.91 73.67 20.67 87.02"/>
        </g>
        <g>
          <polygon class="cls-23" points="55.01 73.42 59.69 73.42 57.35 87.58 54.53 86.53 55.01 73.42"/>
          <polygon class="cls-16" points="55.01 73.42 59.69 73.42 57.35 87.58 54.53 86.53 55.01 73.42"/>
        </g>
        <g>
          <polygon class="cls-23" points="58.28 87.58 60.79 73.67 65.39 73.67 62.28 86.29 58.28 87.58"/>
          <polygon class="cls-11" points="58.28 87.58 60.79 73.67 65.39 73.67 62.28 86.29 58.28 87.58"/>
        </g>
      </g>
      <path class="cls-19" d="M81.79,128.19v-18.85h1.22l-10.04-20.09h-8.11l7.17-18.01h6.24c-5.67-8.32-7.03-22.03-7.03-22.03l.22-12.2-.9.57-1.45,11.62h-16.24v-7.89h5.1l-3.8-14.13L42.12,0l-12.05,27.19-3.8,14.13h5.24v2.37H15.46l-.36-12.34-1.33,11.16.79,1.18h-.86c0,13.92-11.77,26.26-11.77,26.26h8.32l6.17,22.89-11.12,3.3-4.59,14.49h5.31l3.39,17.98H1.96v-17.74h-.86v22.39l-.45.04-.65,1.58h23.39v.72l-18.51,4.52v1.86h68.78v-1.55l-14.92-4.97h24.27v-3.16h-1.22v-4.11ZM5.79,129.24v3.59l-1.72.16v-3.75h1.72ZM1.96,129.24h1.29v3.83l-1.29.12v-3.95ZM6.6,132.76v-3.52h2.94l.6,3.2-3.54.32ZM80.93,132.3h-1.82v-4.11h1.82v4.11ZM73.8,128.19h1.94v4.11h-1.94v-4.11ZM72.99,132.3h-1.72v-4.11h1.72v4.11ZM76.55,128.19h1.75v4.11h-1.75v-4.11ZM74.71,109.34h6.22v18.22h-11.46l5.24-18.22ZM69.29,128.19h1.16v4.11h-2.34l1.18-4.11Z"/>
    </g>
  </g>
</svg>