<?xml version="1.0" encoding="UTF-8"?>
<svg id="Layer_2" data-name="Layer 2" xmlns="http://www.w3.org/2000/svg" viewBox="0 0 270.99 46.79">
  <defs>
    <style>
      .cls-1 {
        fill: #f7f5eb;
      }
    </style>
  </defs>
  <g id="OBJECTS">
    <g>
      <path class="cls-1" d="M237.59,30.29s-.54.87-.13,2.31c.41,1.43,3.7,4.63,4.99,7.02l1.82-3.66,1.23,2.65,2.2-1.93.19,4.08c2.15-1.66,6.45-3.26,7.4-4.4.96-1.15.82-2.16.82-2.16,10.35-4.14,14.89,2.52,14.89,2.52-7.02-4.85-10.34,2.25-10.34,2.25-13.79-.7-16.87,7.82-16.87,7.82,0,0,.63-9.04-12.27-13.97,0,0-.18-7.83-8.55-6.24,0,0,6.84-4.26,14.64,3.71Z"/>
      <path class="cls-1" d="M18.51,33.58s-.02.84.86,1.69,4.53,1.77,6.42,2.94l-.21-3.35,1.96,1.38.77-2.27,1.81,2.82c.84-2.06,3.25-4.96,3.45-6.16s-.31-1.87-.31-1.87c5.66-7.19,11.61-4.31,11.61-4.31-6.97-.57-6.43,5.84-6.43,5.84-10.09,5.16-8.78,12.48-8.78,12.48,0,0-3.26-6.68-14.45-4.9,0,0-3.34-5.49-8.63-.92,0,0,3.11-5.83,11.92-3.37Z"/>
      <path class="cls-1" d="M198.36,16.01s-.09.39.38.77c.48.38,2.69.75,3.78,1.26l.18-1.54,1.11.61.69-1.06.88,1.28c.72-.96,2.5-2.33,2.74-2.89s-.02-.86-.02-.86c4.23-3.39,7.72-2.16,7.72-2.16-4.35-.16-4.59,2.78-4.59,2.78-6.84,2.52-6.68,5.88-6.68,5.88,0,0-1.44-3.03-8.66-2.05,0,0-1.6-2.48-5.36-.3,0,0,2.5-2.73,7.83-1.73Z"/>
      <path class="cls-1" d="M257.27,8.91s-.17.13-.1.45c.07.32.87,1.23,1.16,1.81l.6-.58.26.63.65-.21-.06.83c.63-.16,1.84-.13,2.13-.28s.28-.37.28-.37c2.92.01,3.97,1.71,3.97,1.71-1.77-1.54-2.87-.39-2.87-.39-3.72-1.26-4.79.2-4.79.2,0,0,.42-1.76-2.93-3.79,0,0,.17-1.58-2.14-1.94,0,0,1.97-.3,3.86,1.93Z"/>
      <path class="cls-1" d="M9.67.91s.12.18-.04.46c-.17.28-1.21.9-1.66,1.37l-.39-.74-.44.52-.55-.4-.19.81c-.55-.34-1.71-.69-1.94-.92-.23-.23-.16-.44-.16-.44C1.51.7,0,2,0,2c2.15-.92,2.85.51,2.85.51,3.93-.06,4.5,1.65,4.5,1.65,0,0,.14-1.8,3.96-2.71,0,0,.32-1.56,2.64-1.19,0,0-1.79-.89-4.27.65Z"/>
      <path class="cls-1" d="M59.41,6.99s-.33.43-.2,1.21c.14.78,1.69,2.66,2.24,3.99l1.17-1.83.5,1.47,1.27-.89-.13,2.17c1.23-.75,3.59-1.35,4.16-1.9.57-.55.55-1.09.55-1.09,5.7-1.6,7.72,2.18,7.72,2.18-3.43-2.96-5.59.6-5.59.6-7.24-1.15-9.35,3.17-9.35,3.17,0,0,.85-4.74-5.68-8.08,0,0,.35-4.15-4.16-3.78,0,0,3.85-1.86,7.52,2.79Z"/>
    </g>
  </g>
</svg>