<?xml version="1.0" encoding="UTF-8"?>
<svg id="Layer_2" data-name="Layer 2" xmlns="http://www.w3.org/2000/svg" xmlns:xlink="http://www.w3.org/1999/xlink" viewBox="0 0 750 500">
  <defs>
    <style>
      .cls-1 {
        fill: url(#linear-gradient-2);
      }

      .cls-2 {
        fill: #261e49;
      }

      .cls-3 {
        fill: url(#linear-gradient-4);
      }

      .cls-4 {
        fill: url(#linear-gradient-3);
      }

      .cls-5 {
        fill: url(#linear-gradient-5);
      }

      .cls-6 {
        fill: #2f2259;
      }

      .cls-7 {
        fill: url(#linear-gradient-6);
      }

      .cls-8 {
        fill: #261d4c;
      }

      .cls-9 {
        fill: url(#linear-gradient);
      }

      .cls-10 {
        fill: #33296d;
      }
    </style>
    <linearGradient id="linear-gradient" x1="245.84" y1="0" x2="245.84" y2="90.59" gradientUnits="userSpaceOnUse">
      <stop offset="0" stop-color="#180930" stop-opacity=".7"/>
      <stop offset=".66" stop-color="#180930" stop-opacity="0"/>
    </linearGradient>
    <linearGradient id="linear-gradient-2" x1="160.62" y1="0" x2="160.62" y2="182.66" gradientUnits="userSpaceOnUse">
      <stop offset="0" stop-color="#180930" stop-opacity=".9"/>
      <stop offset=".76" stop-color="#180930" stop-opacity="0"/>
    </linearGradient>
    <linearGradient id="linear-gradient-3" x1="143.25" x2="143.25" y2="254.4" xlink:href="#linear-gradient-2"/>
    <linearGradient id="linear-gradient-4" x1="-215.63" y1="0" x2="-215.63" y2="90.59" gradientTransform="translate(288.53) rotate(-180) scale(1 -1)" xlink:href="#linear-gradient"/>
    <linearGradient id="linear-gradient-5" x1="-300.85" y1="0" x2="-300.85" y2="182.66" gradientTransform="translate(288.53) rotate(-180) scale(1 -1)" xlink:href="#linear-gradient-2"/>
    <linearGradient id="linear-gradient-6" x1="-318.21" y1="0" x2="-318.21" y2="254.4" gradientTransform="translate(288.53) rotate(-180) scale(1 -1)" xlink:href="#linear-gradient-2"/>
  </defs>
  <g id="OBJECTS">
    <g>
      <path class="cls-8" d="M750,127.2s-85.83,72.17-136.64,95.26c0,0,84.6-35.52,136.64-66.98v-28.28Z"/>
      <path class="cls-8" d="M0,127.2s85.83,72.17,136.64,95.26c0,0-84.6-35.52-136.64-66.98v-28.28Z"/>
      <path class="cls-10" d="M750,155.48c-21.35,6.91-36.8,26.95-36.8,50.6,0,.48.02.95.04,1.42-11.88,3.53-21.07,13.3-23.75,25.52-8.1,4.96-14.83,11.9-19.57,20.14-30.91,3.84-55.81,27-62.25,57.03-2.6-.46-5.28-.72-8.01-.72-2.36,0-4.67.18-6.93.52-8-6.93-18.42-11.13-29.83-11.13-22.76,0-41.62,16.68-45.04,38.48-2.33-.57-4.76-.88-7.26-.88-1.13,0-2.25.07-3.36.19-4.31-9.29-13.2-16.01-23.76-17.29-5.71-25.17-28.21-43.97-55.11-43.97-3.41,0-6.75.32-10,.9-12.97-6.78-27.71-10.62-43.36-10.62s-30.39,3.84-43.36,10.62c-3.25-.58-6.59-.9-10-.9-26.9,0-49.4,18.8-55.11,43.97-10.57,1.28-19.45,8.01-23.76,17.29-1.1-.12-2.22-.19-3.36-.19-2.5,0-4.94.31-7.26.88-3.42-21.8-22.28-38.48-45.04-38.48-11.41,0-21.83,4.2-29.83,11.13-2.26-.34-4.57-.52-6.93-.52-2.74,0-5.41.25-8.01.72-6.43-30.03-31.34-53.19-62.25-57.03-4.73-8.24-11.47-15.19-19.57-20.14-2.69-12.22-11.87-22-23.75-25.52.01-.47.04-.95.04-1.42,0-23.65-15.45-43.69-36.8-50.6v344.52h750V155.48Z"/>
      <path class="cls-6" d="M230.31,262.32s64.13,34.96,143.04,34.96,146.38-39.52,146.38-39.52c0,0-60.37,24.9-90.73,28.3,0,0-19.59-18.6-50.76-9.39,0,0-33.73-22.01-74.58-5.38,0,0-11.74-6.16-28.6,3.19l-44.75-12.18Z"/>
      <g>
        <path class="cls-2" d="M219.48,90.59S209.49,29.17,244.07,0h29.47s-5.32,25.98-29.47,30.06c0,0-5.04,11.23-19.19,17.36,0,0-5.39,23.52-5.39,43.16Z"/>
        <path class="cls-9" d="M219.48,90.59S209.49,29.17,244.07,0h29.47s-5.32,25.98-29.47,30.06c0,0-5.04,11.23-19.19,17.36,0,0-5.39,23.52-5.39,43.16Z"/>
      </g>
      <g>
        <path class="cls-2" d="M224.87,182.66S124.97,85.85,96.36,0h93.02s-.82,34.34-22.59,61.77c0,0,27.64,19.86,10.25,53.57,0,0,30.6,50.1,47.83,67.32Z"/>
        <path class="cls-1" d="M224.87,182.66S124.97,85.85,96.36,0h93.02s-.82,34.34-22.59,61.77c0,0,27.64,19.86,10.25,53.57,0,0,30.6,50.1,47.83,67.32Z"/>
      </g>
      <g>
        <path class="cls-2" d="M0,81.64s112.86,92.94,200.6,136.34l-6.69-17.93s48.9,35.62,92.6,54.35c0,0-73.71-55.83-112.53-90.55l8.83,29.13s-38.91-37.1-58-56.19c0,0-2.34-17.98-14.49-30.13,0,0,3.45-41.36-31.05-58.72,0,0,2.3-33.06-37.55-47.94H0v81.64Z"/>
        <path class="cls-4" d="M0,81.64s112.86,92.94,200.6,136.34l-6.69-17.93s48.9,35.62,92.6,54.35c0,0-73.71-55.83-112.53-90.55l8.83,29.13s-38.91-37.1-58-56.19c0,0-2.34-17.98-14.49-30.13,0,0,3.45-41.36-31.05-58.72,0,0,2.3-33.06-37.55-47.94H0v81.64Z"/>
      </g>
      <g>
        <path class="cls-2" d="M530.52,90.59s9.99-61.42-24.59-90.59h-29.47s5.32,25.98,29.47,30.06c0,0,5.04,11.23,19.19,17.36,0,0,5.39,23.52,5.39,43.16Z"/>
        <path class="cls-3" d="M530.52,90.59s9.99-61.42-24.59-90.59h-29.47s5.32,25.98,29.47,30.06c0,0,5.04,11.23,19.19,17.36,0,0,5.39,23.52,5.39,43.16Z"/>
      </g>
      <g>
        <path class="cls-2" d="M525.13,182.66S625.03,85.85,653.64,0h-93.02s.82,34.34,22.59,61.77c0,0-27.64,19.86-10.25,53.57,0,0-30.6,50.1-47.83,67.32Z"/>
        <path class="cls-5" d="M525.13,182.66S625.03,85.85,653.64,0h-93.02s.82,34.34,22.59,61.77c0,0-27.64,19.86-10.25,53.57,0,0-30.6,50.1-47.83,67.32Z"/>
      </g>
      <g>
        <path class="cls-6" d="M750,81.64s-112.86,92.94-200.6,136.34l6.69-17.93s-48.9,35.62-92.6,54.35c0,0,73.71-55.83,112.53-90.55l-8.83,29.13s38.91-37.1,58-56.19c0,0,2.34-17.98,14.49-30.13,0,0-3.45-41.36,31.05-58.72,0,0-2.3-33.06,37.55-47.94h41.72v81.64Z"/>
        <path class="cls-7" d="M750,81.64s-112.86,92.94-200.6,136.34l6.69-17.93s-48.9,35.62-92.6,54.35c0,0,73.71-55.83,112.53-90.55l-8.83,29.13s38.91-37.1,58-56.19c0,0,2.34-17.98,14.49-30.13,0,0-3.45-41.36,31.05-58.72,0,0-2.3-33.06,37.55-47.94h41.72v81.64Z"/>
      </g>
    </g>
  </g>
</svg>