<?xml version="1.0" encoding="UTF-8"?>
<svg id="Layer_2" data-name="Layer 2" xmlns="http://www.w3.org/2000/svg" xmlns:xlink="http://www.w3.org/1999/xlink" viewBox="0 0 750.02 162.76">
  <defs>
    <style>
      .cls-1 {
        fill: url(#linear-gradient-2);
      }

      .cls-2 {
        fill: #7a57b2;
      }

      .cls-3 {
        fill: url(#linear-gradient-3);
      }

      .cls-4 {
        fill: #6c4a99;
      }

      .cls-5 {
        fill: url(#linear-gradient);
      }
    </style>
    <linearGradient id="linear-gradient" x1="375.01" y1="2.31" x2="375.01" y2="162.76" gradientUnits="userSpaceOnUse">
      <stop offset="0" stop-color="#d777dd" stop-opacity=".2"/>
      <stop offset=".45" stop-color="#d777dd" stop-opacity="0"/>
    </linearGradient>
    <linearGradient id="linear-gradient-2" x1="371.57" y1="15.01" x2="371.57" y2="46.52" gradientUnits="userSpaceOnUse">
      <stop offset="0" stop-color="#f3e697" stop-opacity=".1"/>
      <stop offset=".56" stop-color="#f3e697" stop-opacity="0"/>
    </linearGradient>
    <linearGradient id="linear-gradient-3" x1="375.01" y1="162.76" x2="375.01" y2="0" gradientUnits="userSpaceOnUse">
      <stop offset=".27" stop-color="#d777dd" stop-opacity=".8"/>
      <stop offset=".81" stop-color="#d777dd" stop-opacity="0"/>
    </linearGradient>
  </defs>
  <g id="OBJECTS">
    <g>
      <path class="cls-4" d="M673.58,47.16c-19.84-13.7-64.39-25.38-123.65-33.09l.12-.02-14.13-3.43s2.26,1.41,3.75,2.18c-2.89-.34-5.81-.68-8.76-1.01-7.45-1.08-16.35-2.34-16.35-2.34l.68-1.96-9.33.6-2.92.51-10.53-1.78,5.68-1.45-12.43,2.13-15.23-1.09-5.28-2.66,1.45,2.21-17.69-2.23,2.11-.56-12,.42-6.13-1.29,2.21,2.31-13.11-1.45,1.45-1.55-7.4,1.55,5.36-3.17-6.38,2.3-1.09,2.21c-10.41-.21-20.98-.32-31.68-.32-16.14,0-31.97.25-47.42.72h0s-6.38-2.3-6.38-2.3l4.01,2.37c-.72.02-1.43.05-2.14.07l-3.91-.82.86.92c-3.68.13-7.33.28-10.95.43l.65-.67-3.87.81c-2.22.1-4.44.21-6.64.32l-7.62-.27,2.11.56h0c-5.7.31-11.34.65-16.9,1.02l.66-1.01-2.21,1.12c-7.88.54-15.61,1.14-23.17,1.79l-7.55-1.29,5.68,1.45h-.04c-4.53.41-9.01.83-13.41,1.27h0l-9.33-.6.53,1.52c-7.95.86-15.69,1.8-23.18,2.79,1.05-.61,1.97-1.19,1.97-1.19l-8.7,2.11c-54.59,7.69-95.52,18.85-114.3,31.83H0v115.6h750.02V47.16h-76.44Z"/>
      <polygon class="cls-2" points="338.37 15.01 389.71 18.27 313.36 24.4 374.81 32.23 310.47 46.52 432.68 46.52 387.22 39.73 405.62 34.78 348.94 25.08 410.05 20.65 395.45 17.59 407.15 15.01 338.37 15.01"/>
      <path class="cls-5" d="M328.51,2.61l4.01,2.37c-.72.02-1.43.05-2.14.07l-3.91-.82.86.92c-3.68.13-7.33.28-10.95.43l.65-.67-3.87.81c-2.22.1-4.44.21-6.64.32l-7.62-.27,2.11.56h0c-5.7.31-11.34.65-16.9,1.02l.66-1.01-2.21,1.12c-7.88.54-15.61,1.14-23.17,1.79l-7.55-1.29,5.68,1.45h-.04c-4.53.41-9.01.83-13.41,1.27h0l-9.33-.6.53,1.52c-7.95.86-15.69,1.8-23.18,2.79,1.05-.61,1.97-1.19,1.97-1.19l-8.7,2.11c-54.59,7.69-95.52,18.85-114.3,31.83H0v115.6h750.02V47.16h-76.44c-19.84-13.7-64.39-25.38-123.65-33.09l.12-.02-14.13-3.43s2.26,1.41,3.75,2.18c-2.89-.34-5.81-.68-8.76-1.01-7.45-1.08-16.35-2.34-16.35-2.34l.68-1.96-9.33.6-2.92.51-10.53-1.78,5.68-1.45-12.43,2.13-15.23-1.09-5.28-2.66,1.45,2.21-17.69-2.23,2.11-.56-12,.42-6.13-1.29,2.21,2.31-13.11-1.45,37.35,7.59-42.9,7.08,80.44,16.67-122.14,37.52-115.32-43.19,70.21-11.24-51.57-3.71,56.76-8.97-6.38-2.3Z"/>
      <polygon class="cls-1" points="338.37 15.01 389.71 18.27 313.36 24.4 374.81 32.23 310.47 46.52 432.68 46.52 387.22 39.73 405.62 34.78 348.94 25.08 410.05 20.65 395.45 17.59 407.15 15.01 338.37 15.01"/>
      <path class="cls-3" d="M673.58,47.16c-19.84-13.7-64.39-25.38-123.65-33.09l.12-.02-14.13-3.43s2.26,1.41,3.75,2.18c-2.89-.34-5.81-.68-8.76-1.01-7.45-1.08-16.35-2.34-16.35-2.34l.68-1.96-9.33.6-2.92.51-10.53-1.78,5.68-1.45-12.43,2.13-15.23-1.09-5.28-2.66,1.45,2.21-17.69-2.23,2.11-.56-12,.42-6.13-1.29,2.21,2.31-13.11-1.45,1.45-1.55-7.4,1.55,5.36-3.17-6.38,2.3-1.09,2.21c-10.41-.21-20.98-.32-31.68-.32-16.14,0-31.97.25-47.42.72h0s-6.38-2.3-6.38-2.3l4.01,2.37c-.72.02-1.43.05-2.14.07l-3.91-.82.86.92c-3.68.13-7.33.28-10.95.43l.65-.67-3.87.81c-2.22.1-4.44.21-6.64.32l-7.62-.27,2.11.56h0c-5.7.31-11.34.65-16.9,1.02l.66-1.01-2.21,1.12c-7.88.54-15.61,1.14-23.17,1.79l-7.55-1.29,5.68,1.45h-.04c-4.53.41-9.01.83-13.41,1.27h0l-9.33-.6.53,1.52c-7.95.86-15.69,1.8-23.18,2.79,1.05-.61,1.97-1.19,1.97-1.19l-8.7,2.11c-54.59,7.69-95.52,18.85-114.3,31.83H0v115.6h750.02V47.16h-76.44Z"/>
    </g>
  </g>
</svg>