<?xml version="1.0" encoding="UTF-8"?>
<svg id="Layer_2" data-name="Layer 2" xmlns="http://www.w3.org/2000/svg" xmlns:xlink="http://www.w3.org/1999/xlink" viewBox="0 0 750 269.51">
  <defs>
    <style>
      .cls-1 {
        fill: #332051;
      }

      .cls-2 {
        fill: url(#linear-gradient-15);
      }

      .cls-3 {
        fill: url(#linear-gradient-13);
      }

      .cls-4 {
        fill: url(#linear-gradient-2);
      }

      .cls-5 {
        fill: url(#linear-gradient-10);
      }

      .cls-6 {
        fill: url(#linear-gradient-12);
      }

      .cls-7 {
        fill: #25183f;
      }

      .cls-8 {
        fill: url(#linear-gradient-4);
      }

      .cls-9 {
        fill: url(#linear-gradient-3);
      }

      .cls-10 {
        fill: url(#linear-gradient-5);
      }

      .cls-11 {
        fill: url(#linear-gradient-8);
      }

      .cls-12 {
        fill: url(#linear-gradient-14);
      }

      .cls-13 {
        fill: url(#linear-gradient-17);
      }

      .cls-14 {
        fill: url(#linear-gradient-7);
      }

      .cls-15 {
        fill: url(#linear-gradient-9);
      }

      .cls-16 {
        fill: url(#linear-gradient-11);
      }

      .cls-17 {
        fill: url(#linear-gradient-6);
      }

      .cls-18 {
        fill: url(#linear-gradient-16);
      }

      .cls-19 {
        fill: url(#linear-gradient);
      }

      .cls-20 {
        fill: url(#linear-gradient-18);
      }
    </style>
    <linearGradient id="linear-gradient" x1="650.89" y1="42.41" x2="539.32" y2="42.41" gradientUnits="userSpaceOnUse">
      <stop offset="0" stop-color="#100523" stop-opacity=".8"/>
      <stop offset="1" stop-color="#100523" stop-opacity=".1"/>
    </linearGradient>
    <linearGradient id="linear-gradient-2" x1="601.06" y1="30.28" x2="654.64" y2="30.28" gradientUnits="userSpaceOnUse">
      <stop offset="0" stop-color="#180a33" stop-opacity=".3"/>
      <stop offset="1" stop-color="#180a33" stop-opacity="0"/>
    </linearGradient>
    <linearGradient id="linear-gradient-3" x1="546.05" y1="137.47" x2="646.4" y2="137.47" gradientUnits="userSpaceOnUse">
      <stop offset="0" stop-color="#180a33" stop-opacity=".6"/>
      <stop offset="1" stop-color="#180a33" stop-opacity="0"/>
    </linearGradient>
    <linearGradient id="linear-gradient-4" x1="603.61" y1="81.65" x2="645.8" y2="154.73" gradientUnits="userSpaceOnUse">
      <stop offset="0" stop-color="#100523" stop-opacity=".4"/>
      <stop offset=".7" stop-color="#100523" stop-opacity=".1"/>
    </linearGradient>
    <linearGradient id="linear-gradient-5" x1="539.32" y1="20.71" x2="607.92" y2="20.71" gradientUnits="userSpaceOnUse">
      <stop offset="0" stop-color="#d777dd" stop-opacity=".2"/>
      <stop offset=".75" stop-color="#d777dd" stop-opacity="0"/>
    </linearGradient>
    <linearGradient id="linear-gradient-6" x1="529.72" y1="53.03" x2="574.33" y2="130.31" xlink:href="#linear-gradient-5"/>
    <linearGradient id="linear-gradient-7" x1="657.94" y1="133.06" x2="663.49" y2="133.06" gradientTransform="translate(37.18 -123.12) rotate(11.13)" gradientUnits="userSpaceOnUse">
      <stop offset="0" stop-color="#180a33" stop-opacity=".8"/>
      <stop offset="1" stop-color="#180a33" stop-opacity="0"/>
    </linearGradient>
    <linearGradient id="linear-gradient-8" x1="720.05" y1="131.66" x2="725.6" y2="131.66" gradientTransform="translate(23.83 -87.12) rotate(8.3)" xlink:href="#linear-gradient-7"/>
    <linearGradient id="linear-gradient-9" x1="684.43" y1="72.74" x2="684.43" y2="84.31" gradientTransform="matrix(1,0,0,1,0,0)" xlink:href="#linear-gradient-7"/>
    <linearGradient id="linear-gradient-10" x1="1149.08" y1="42.41" x2="1037.51" y2="42.41" gradientTransform="translate(1248.19) rotate(-180) scale(1 -1)" xlink:href="#linear-gradient"/>
    <linearGradient id="linear-gradient-11" x1="1099.25" x2="1152.83" gradientTransform="translate(1248.19) rotate(-180) scale(1 -1)" xlink:href="#linear-gradient-2"/>
    <linearGradient id="linear-gradient-12" x1="1044.25" x2="1144.59" gradientTransform="translate(1248.19) rotate(-180) scale(1 -1)" xlink:href="#linear-gradient-3"/>
    <linearGradient id="linear-gradient-13" x1="1101.8" x2="1143.99" gradientTransform="translate(1248.19) rotate(-180) scale(1 -1)" xlink:href="#linear-gradient-4"/>
    <linearGradient id="linear-gradient-14" x1="1037.51" x2="1106.11" gradientTransform="translate(1248.19) rotate(-180) scale(1 -1)" xlink:href="#linear-gradient-5"/>
    <linearGradient id="linear-gradient-15" x1="249.91" y1="120.77" x2="150.68" y2="120.77" xlink:href="#linear-gradient-5"/>
    <linearGradient id="linear-gradient-16" x1="1146.74" y1="36.86" x2="1152.3" y2="36.86" gradientTransform="translate(1211.01 -123.12) rotate(168.87) scale(1 -1)" xlink:href="#linear-gradient-7"/>
    <linearGradient id="linear-gradient-17" x1="1213.03" y1="59.72" x2="1218.58" y2="59.72" gradientTransform="translate(1224.36 -87.12) rotate(171.7) scale(1 -1)" xlink:href="#linear-gradient-7"/>
    <linearGradient id="linear-gradient-18" x1="1182.62" y1="72.74" x2="1182.62" y2="84.31" gradientTransform="translate(1248.19) rotate(-180) scale(1 -1)" xlink:href="#linear-gradient-7"/>
  </defs>
  <g id="OBJECTS">
    <g>
      <g>
        <g>
          <polygon class="cls-1" points="544.68 22.01 539.32 41.41 544.68 44.39 496.17 226.18 597.79 244.9 645.62 60.56 650.89 58.86 654.64 44.22 607.92 0 544.68 22.01"/>
          <polygon class="cls-19" points="539.32 41.41 601.06 24.25 650.89 58.86 646.4 60.56 599.32 30.04 544.68 44.39 539.32 41.41"/>
          <g>
            <polygon class="cls-4" points="607.92 0 601.06 24.25 650.89 60.56 654.64 44.22 607.92 0"/>
            <polygon class="cls-9" points="599.32 30.04 546.05 235.37 597.79 244.9 646.4 60.56 599.32 30.04"/>
          </g>
          <polygon class="cls-8" points="619.05 72.74 616.85 171.44 640.94 79.46 619.05 72.74"/>
          <polygon class="cls-7" points="585.24 84.31 564.09 107.2 546.05 105.5 562.38 108.73 536 143.63 581.79 91.54 574.83 124.44 585.24 91.37 610.55 83.03 586.04 88.65 585.24 84.31"/>
          <g>
            <polygon class="cls-10" points="601.06 24.25 607.92 0 544.68 22.01 539.32 41.41 601.06 24.25"/>
            <polygon class="cls-17" points="599.32 30.04 544.68 44.39 512.18 166.19 562.38 108.73 546.05 105.5 565.1 106.1 585.24 84.31 599.32 30.04"/>
          </g>
        </g>
        <g>
          <g>
            <polygon class="cls-1" points="679.86 47.39 680.81 13.84 668.97 45.25 672.34 48.41 669.1 47.77 628.47 254.17 638.16 256.08 678.78 49.67 675.54 49.04 679.86 47.39"/>
            <polygon class="cls-14" points="680.81 13.84 676.6 44.89 673.94 48.72 633.31 255.12 638.16 256.08 678.78 49.67 675.54 49.04 679.86 47.39 680.81 13.84"/>
          </g>
          <g>
            <polygon class="cls-1" points="735.78 59.02 735.06 25.46 724.79 57.42 728.31 60.41 725.05 59.93 694.68 268.09 704.45 269.51 734.81 61.36 731.55 60.88 735.78 59.02"/>
            <polygon class="cls-11" points="735.06 25.46 732.4 56.68 729.93 60.64 699.56 268.8 704.45 269.51 734.81 61.36 731.55 60.88 735.78 59.02 735.06 25.46"/>
          </g>
          <g>
            <path class="cls-1" d="M750,71.29l-126.62-1.74c-.99-.01-1.92.3-2.68.85-.77.56-1.37,1.38-1.65,2.34h0c-.41,1.38-.11,2.78.65,3.84.76,1.06,1.98,1.8,3.42,1.86l126.89,5.87v-13.02Z"/>
            <path class="cls-15" d="M619.69,76.58c.76,1.06,1.98,1.8,3.42,1.86l126.89,5.87v-6.32l-130.95-5.25c-.41,1.38-.11,2.78.65,3.84Z"/>
          </g>
        </g>
      </g>
      <g>
        <g>
          <polygon class="cls-1" points="205.32 22.01 210.68 41.41 205.32 44.39 253.83 226.18 152.21 244.9 104.38 60.56 99.11 58.86 95.36 44.22 142.08 0 205.32 22.01"/>
          <polygon class="cls-7" points="165.14 85.77 196.72 105.24 198.81 84.31 198.81 106.27 220.94 119.37 166.48 90.94 173.24 116.31 157.13 79.71 165.14 85.77"/>
          <polygon class="cls-5" points="210.68 41.41 148.94 24.25 99.11 58.86 103.6 60.56 150.68 30.04 205.32 44.39 210.68 41.41"/>
          <g>
            <polygon class="cls-16" points="142.08 0 148.94 24.25 99.11 60.56 95.36 44.22 142.08 0"/>
            <polygon class="cls-6" points="150.68 30.04 203.95 235.37 152.21 244.9 103.6 60.56 150.68 30.04"/>
          </g>
          <polygon class="cls-3" points="130.95 72.74 133.15 171.44 109.06 79.46 130.95 72.74"/>
          <g>
            <polygon class="cls-12" points="148.94 24.25 142.08 0 205.32 22.01 210.68 41.41 148.94 24.25"/>
            <polygon class="cls-2" points="205.32 44.39 150.68 30.04 165.14 85.77 196.72 105.24 198.81 84.31 198.81 106.27 220.94 119.37 166.48 90.94 249.91 211.49 205.32 44.39"/>
          </g>
        </g>
        <g>
          <g>
            <polygon class="cls-1" points="70.14 47.39 69.19 13.84 81.03 45.25 77.66 48.41 80.9 47.77 121.53 254.17 111.84 256.08 71.22 49.67 74.46 49.04 70.14 47.39"/>
            <polygon class="cls-18" points="69.19 13.84 73.4 44.89 76.06 48.72 116.69 255.12 111.84 256.08 71.22 49.67 74.46 49.04 70.14 47.39 69.19 13.84"/>
          </g>
          <g>
            <polygon class="cls-1" points="14.22 59.02 14.94 25.46 25.21 57.42 21.69 60.41 24.95 59.93 55.32 268.09 45.55 269.51 15.19 61.36 18.45 60.88 14.22 59.02"/>
            <polygon class="cls-13" points="14.94 25.46 17.6 56.68 20.07 60.64 50.44 268.8 45.55 269.51 15.19 61.36 18.45 60.88 14.22 59.02 14.94 25.46"/>
          </g>
          <g>
            <path class="cls-1" d="M0,71.29l126.62-1.74c.99-.01,1.92.3,2.68.85.77.56,1.37,1.38,1.65,2.34h0c.41,1.38.11,2.78-.65,3.84-.76,1.06-1.98,1.8-3.42,1.86L0,84.31v-13.02Z"/>
            <path class="cls-20" d="M130.31,76.58c-.76,1.06-1.98,1.8-3.42,1.86L0,84.31v-6.32l130.95-5.25c.41,1.38.11,2.78-.65,3.84Z"/>
          </g>
        </g>
      </g>
    </g>
  </g>
</svg>