<?xml version="1.0" encoding="UTF-8"?>
<svg id="Layer_2" data-name="Layer 2" xmlns="http://www.w3.org/2000/svg" xmlns:xlink="http://www.w3.org/1999/xlink" viewBox="0 0 750.02 257.06">
  <defs>
    <style>
      .cls-1 {
        fill: url(#linear-gradient-2);
      }

      .cls-2 {
        fill: url(#linear-gradient-10);
      }

      .cls-3 {
        fill: url(#linear-gradient-12);
      }

      .cls-4 {
        fill: url(#linear-gradient-4);
      }

      .cls-5 {
        fill: url(#linear-gradient-3);
      }

      .cls-6 {
        fill: url(#linear-gradient-5);
      }

      .cls-7 {
        fill: url(#linear-gradient-8);
      }

      .cls-8 {
        fill: url(#linear-gradient-7);
      }

      .cls-9 {
        fill: url(#linear-gradient-9);
      }

      .cls-10 {
        fill: url(#linear-gradient-11);
      }

      .cls-11 {
        fill: url(#linear-gradient-6);
      }

      .cls-12 {
        fill: url(#linear-gradient);
      }
    </style>
    <linearGradient id="linear-gradient" x1="521.72" y1="153.32" x2="521.72" y2="160.71" gradientUnits="userSpaceOnUse">
      <stop offset="0" stop-color="#6f5da3" stop-opacity=".7"/>
      <stop offset="1" stop-color="#6f5da3" stop-opacity="0"/>
    </linearGradient>
    <linearGradient id="linear-gradient-2" x1="558.21" y1="72.74" x2="558.21" y2="153.32" gradientUnits="userSpaceOnUse">
      <stop offset="0" stop-color="#9486d1" stop-opacity=".6"/>
      <stop offset=".85" stop-color="#6f5da3" stop-opacity="0"/>
    </linearGradient>
    <linearGradient id="linear-gradient-3" x1="188.36" y1="76.93" x2="188.36" y2="156.65" xlink:href="#linear-gradient-2"/>
    <linearGradient id="linear-gradient-4" x1="144.12" y1="193.46" x2="90.21" y2="193.46" xlink:href="#linear-gradient-2"/>
    <linearGradient id="linear-gradient-5" x1="620.55" y1="160.58" x2="620.55" y2="226.49" xlink:href="#linear-gradient-2"/>
    <linearGradient id="linear-gradient-6" x1="601.06" y1="35.06" x2="680.81" y2="35.06" xlink:href="#linear-gradient-2"/>
    <linearGradient id="linear-gradient-7" x1="656.41" y1="144.36" x2="750.02" y2="144.36" xlink:href="#linear-gradient-2"/>
    <linearGradient id="linear-gradient-8" x1="469.24" y1="192.43" x2="469.24" y2="255.95" xlink:href="#linear-gradient-2"/>
    <linearGradient id="linear-gradient-9" x1="103.53" y1="0" x2="103.53" y2="120.77" xlink:href="#linear-gradient-2"/>
    <linearGradient id="linear-gradient-10" x1="269.73" y1="180.29" x2="269.73" y2="257.06" xlink:href="#linear-gradient-2"/>
    <linearGradient id="linear-gradient-11" x1="45.39" y1="84.31" x2="45.39" y2="178.17" xlink:href="#linear-gradient-2"/>
    <linearGradient id="linear-gradient-12" x1="45.1" y1="13.84" x2="45.1" y2="70.25" xlink:href="#linear-gradient"/>
  </defs>
  <g id="OBJECTS">
    <g>
      <g>
        <path class="cls-12" d="M526.87,153.32c-6.04,3.86-10.3,7.39-10.3,7.39,3.42-2.04,6.87-4.55,10.3-7.39Z"/>
        <path class="cls-1" d="M588.24,72.74s-30.04,54.63-61.38,80.58c10.2-6.51,25.5-13.97,34.06-7,0,0,3.81-27.26,28.63-14.97,0,0-8.05-41.91-1.32-58.6ZM558.21,138.35c-2.21-2.21-11.32,4.17-12.16.94-.84-3.23,16.5-20.68,16.5-14.47s-4.34,13.53-4.34,13.53ZM579.74,124.82s-11.57-1.11-11.06-7.66c.51-6.55,9.28-23.4,11.91-16.77s-.85,24.43-.85,24.43Z"/>
      </g>
      <path class="cls-5" d="M162.84,76.93c4.2,28.02-7.07,62.15-7.07,62.15,20.12-10.68,33.2,14.04,33.2,14.04,6.94-9.66,31.96,3.54,31.96,3.54-34.98-23.23-58.09-79.72-58.09-79.72ZM175.71,118.52c-4.72-1.7-7.2-16.68-7.2-16.68,2.89-10.21,11.91,18.38,7.2,16.68ZM170.43,120.77c-2.16,10.93-6.86,10.27-6.86,10.27-2.38-20.84,9.02-21.2,6.86-10.27ZM190.81,144.88c-2.21-7.51-20.96-16.34-16.21-21.09,4.74-4.74,12.98.34,17.57,10.04,4.6,9.7-1.36,11.04-1.36,11.04Z"/>
      <path class="cls-4" d="M92.75,187.2s8.18,16-2.54,23.49c0,0,17.02-1.94,22.43,18.22,0,0,3.95-46.3,31.49-70.9,0,0-24.83,19.15-51.37,29.19ZM101.48,207.66c-8.46-2.24,7.72-27.95,15.21-15.23,0,0-6.75,17.47-15.21,15.23ZM121.53,184.35s-4.1,3.45-9.26,0c-5.16-3.45,12.03-11.49,12.03-9.06s-2.77,9.06-2.77,9.06Z"/>
      <path class="cls-6" d="M642.92,189.97c-20.06-5.15-44.74-29.4-44.74-29.4,8.37,8.37,19.58,65.91,19.58,65.91,6.36-12.71,20.52-7.88,20.52-7.88-6.82-18.72,4.64-28.63,4.64-28.63ZM619.24,205c-4.6-13.8,9.14-7.37,12.66,7.54,0,0-8.06,6.25-12.66-7.54ZM614.55,178.95c3.83-5.79,18.76,14.21,18.76,14.21-17.41,10.81-22.59-8.42-18.76-14.21Z"/>
      <path class="cls-11" d="M680.81,13.84c-39.8,10.38-72.89-13.84-72.89-13.84,5.52,14.25-6.85,24.25-6.85,24.25,37.22-4.23,63.63,45.86,63.63,45.86-6.96-15.77,4.4-22.35,4.4-22.35-8.87-24.11,11.71-33.93,11.71-33.93ZM617.76,13.84c8.74-8.74,28.86,6.12,28.86,24.09,0,0-37.6-15.35-28.86-24.09ZM655.76,44.82s-12.14-20.17-2.11-22.72c10.03-2.55,2.11,22.72,2.11,22.72Z"/>
      <path class="cls-8" d="M726.31,154.44c3.72-13.17,16.56-16.03,23.7-16.57v-53.55c-34.46,34.45-89.03,30.24-89.03,30.24,9.91,13.56-4.58,23.25-4.58,23.25,45.5,3.11,93.61,66.62,93.61,66.62v-25.06c-12.94-5.92-26.59-14.76-23.71-24.92ZM689.87,139.2c-4.1,13.02-19.59-8.25-19.59-8.25,0,0-2.19-8.86,6.48-10.22,8.67-1.36,17.2,5.45,13.11,18.47ZM696.98,131.86c-4.11-18.16,42.89-23.44,42.89-23.44-5.84,42.83-38.79,41.61-42.89,23.44Z"/>
      <path class="cls-7" d="M495.51,192.43s-19.18,36.9-69,38.94c0,0,35.7,1.15,41.28,24.58,0,0,30.36-13.76,44.19-2.83,0,0-21.23-32.23-16.47-60.69ZM479.52,216.32c2.01-10.19,12.58-13.81,10.19,4.71,0,0-12.2,5.49-10.19-4.71ZM463.49,236.18c-9.18-3.11-8.27-10.84,6.76-10.21,0,0,2.42,13.32-6.76,10.21ZM495.97,238.17c-1.57,11.91-25.72,8.42-25.72,8.42-2.78-27.68,27.29-20.32,25.72-8.42Z"/>
      <path class="cls-9" d="M148.94,24.25s-10.31-7.11-6.85-24.25c0,0-18.88,70.99-83.97,81.05,0,0,29.24-.52,37.15,39.71,0,0,14.86-32.55,42.61-29.4,0,0-2.35-49.92,11.06-67.12ZM95.36,87.81c.48-16.78,35.88-22.57,35.88-.78,0,0-36.36,17.56-35.88.78ZM132.35,62.86s-7.57,6.98-14.55,0c-6.98-6.98,16.75-43.03,18.84-32.58,2.09,10.45-4.29,32.58-4.29,32.58Z"/>
      <path class="cls-2" d="M241.58,180.29c19.62,46.11-25.48,76.77-25.48,76.77,32.96-14.79,53.48-3.83,53.48-3.83,15.95-30.57,53.77-24.76,53.77-24.76-54.87-9.37-81.77-48.18-81.77-48.18ZM249.91,242.63s-3.97,3.18-7.14,0,1.61-25.02,4.6-22.03,2.55,22.03,2.55,22.03ZM259.59,241.34c-11.23-5.2-3.34-31.76,5.65-28.69s20.57,13.84,20.57,13.84c0,0-14.99,20.06-26.22,14.85Z"/>
      <path class="cls-10" d="M0,84.31l.18,69.45c22.13-7.83,41.76,24.42,41.76,24.42,9.76-22.56,48.83-29.14,48.83-29.14C32.94,150.44,0,84.31,0,84.31ZM9.02,145.29c-10.46-1.28-6.82-43.47,3.46-33.19,10.28,10.28,11.7,21.49,11.7,21.49,0,0-4.7,12.98-15.16,11.7ZM31.52,157.84c-12.58-6.64.19-25.51,6.45-22.07,6.26,3.44,28.47,17.99,28.47,17.99,0,0-22.34,10.72-34.91,4.09Z"/>
      <path class="cls-3" d="M69.19,13.84s-28.95,20.1-54.26,11.62c0,0,41.29,15.84,60.33,44.79,0,0-18.17-35.82-6.07-56.41ZM59.24,45.16s-15.83-5.11-16.85-10.72c-1.02-5.62,14.13-16.68,16.85-11.06,2.72,5.62,0,21.79,0,21.79Z"/>
    </g>
  </g>
</svg>