<?xml version="1.0" encoding="UTF-8"?>
<svg id="Layer_2" data-name="Layer 2" xmlns="http://www.w3.org/2000/svg" xmlns:xlink="http://www.w3.org/1999/xlink" viewBox="0 0 750.02 162.4">
  <defs>
    <style>
      .cls-1 {
        fill: url(#linear-gradient-2);
      }

      .cls-2 {
        fill: url(#linear-gradient-4);
      }

      .cls-3 {
        fill: url(#linear-gradient-3);
      }

      .cls-4 {
        fill: #4a3d82;
      }

      .cls-5 {
        fill: #4a347f;
      }

      .cls-6 {
        fill: url(#linear-gradient);
      }
    </style>
    <linearGradient id="linear-gradient" x1="375.01" y1="162.4" x2="375.01" y2="0" gradientUnits="userSpaceOnUse">
      <stop offset=".05" stop-color="#0c0108" stop-opacity=".7"/>
      <stop offset=".85" stop-color="#332051" stop-opacity=".1"/>
    </linearGradient>
    <linearGradient id="linear-gradient-2" x1="378.37" y1="90.13" x2="378.37" y2="39.37" gradientUnits="userSpaceOnUse">
      <stop offset="0" stop-color="#0c0108" stop-opacity=".4"/>
      <stop offset=".86" stop-color="#332051" stop-opacity="0"/>
    </linearGradient>
    <linearGradient id="linear-gradient-3" x1="378.37" y1="39.37" x2="378.37" y2="90.13" gradientUnits="userSpaceOnUse">
      <stop offset="0" stop-color="#d777dd" stop-opacity=".2"/>
      <stop offset=".56" stop-color="#d777dd" stop-opacity="0"/>
    </linearGradient>
    <linearGradient id="linear-gradient-4" x1="389.71" y1="3.83" x2="389.71" y2="69.16" gradientUnits="userSpaceOnUse">
      <stop offset="0" stop-color="#d777dd" stop-opacity=".3"/>
      <stop offset=".66" stop-color="#d777dd" stop-opacity="0"/>
    </linearGradient>
  </defs>
  <g id="OBJECTS">
    <g>
      <path class="cls-5" d="M750.02,3.53l-1.35.85c-.89-.05-2.23-.12-3.98-.21l-2.01-2.54-.26,2.44c-2.19-.1-4.83-.2-7.91-.3l1.27-2.14-3.59,2.07c-2.27-.07-4.74-.13-7.41-.18l-7.42-2.5,4,2.44c-4.18-.07-8.78-.13-13.78-.15l2.59-3.31-6.16,3.3c-7.25,0-15.26.05-23.98.21l2.9-1.87-8.17,1.98c-9.66.21-20.13.55-31.31,1.06l-2.64-1.37.16,1.48c-1.95.09-3.93.19-5.92.29l-10.59-2.28,6.45,2.5c-5.78.31-11.73.67-17.85,1.07l-.97-2.53-1.73,2.71c-6.26.43-12.68.9-19.25,1.44l8.2-4.15-16.62,4.86c-6.02.53-12.17,1.1-18.42,1.72l-1.22-1.35-.36,1.51c-5.45.55-10.98,1.14-16.59,1.77l5.29-3.8-20.08,5.53c-1.47.18-2.95.36-4.43.55l-3.27-2,.82,2.31c-.77.1-1.55.2-2.32.3l-4.88-1.7,3.16,1.92c-7.15.93-14.41,1.93-21.77,3.01l4.49-2.14-17.38,4.08c-4.61.72-9.25,1.46-13.92,2.23l-2.33-1.2.93,1.44c-3.82.64-7.65,1.29-11.51,1.96l2.92-2.12-13.27,3.97c-.1.02-.2.04-.3.05l1.82-2.75-5.62,3.45c-3.82.71-7.67,1.44-11.53,2.19l-6.47-.67,3.43,1.26c-5,.99-10.03,2.01-15.09,3.06l5.28-5.37-13.12,7.03c-10.55,2.27-21.2,4.69-31.96,7.29-2.19-.53-4.37-1.05-6.56-1.56v-.04s-11.05-4.06-11.05-4.06l2.26,2.06c-5.1-1.17-10.18-2.29-15.24-3.39l-.53-.15h3.29l-10.52-1.54-17.37-3.53-6.32-3.5,2.47,2.78c-1.52-.29-3.04-.59-4.56-.87l-2.38-1.9.84,1.61c-3.36-.63-6.7-1.25-10.02-1.85l2.16-1.9-3.54,1.65c-4.36-.79-8.69-1.54-13-2.28l-4.78-1.97,1.45,1.4c-1.82-.31-3.63-.6-5.44-.9l-.36-1.51-.63,1.35c-2.23-.36-4.46-.72-6.68-1.07l-11.07-3.34,3.71,2.19c-3.81-.58-7.59-1.15-11.35-1.69l-.28-.06,3.45-1.34-8.35.66c-6.88-.97-13.66-1.88-20.35-2.72l-4.58-1.91,1.56,1.53c-2.74-.34-5.46-.67-8.17-.99l.95-.54h-5.55c-8.37-.97-16.56-1.84-24.57-2.63l-6.65-2.71,2.68,2.32c-3.05-.29-6.07-.57-9.07-.84l-5.36-2.63,2.99,2.42c-2.99-.26-5.95-.52-8.88-.76l.44-2.43-2.58,2.25c-2.19-.18-4.36-.35-6.51-.51l-13.03-3.02,4.88,2.42c-7.85-.55-15.46-1.03-22.8-1.43l-7.77-2.33,3.72,2.11c-3.84-.2-7.6-.38-11.28-.54l3.38-1.79-7.63,1.62c-7.76-.32-15.15-.55-22.14-.72l-8.15-2.05,3.58,1.94c-2.43-.05-4.82-.09-7.15-.13l-2.55-.44v.4c-3.92-.05-7.68-.09-11.28-.1l4.89-2.42-9.39,2.4c-4.36,0-8.46.02-12.28.06L23.45,0l7.62,3.42c-3.4.05-6.54.11-9.41.19l-4.59-1.65.42,1.76c-4.18.12-7.66.26-10.38.38l3.06-2.14-4.56,2.21c-3.68.17-5.61.3-5.61.3v157.94h750.02V4.47s-.09,0-.25-.02l.25-.92Z"/>
      <path class="cls-6" d="M748.67,4.38c-.89-.05-2.23-.12-3.98-.21l-2.01-2.54-.26,2.44c-2.19-.1-4.83-.2-7.91-.3l1.27-2.14-3.59,2.07c-2.27-.07-4.74-.13-7.41-.18l-7.42-2.5,4,2.44c-4.18-.07-8.78-.13-13.78-.15l2.59-3.31-6.16,3.3c-7.25,0-15.26.05-23.98.21l2.9-1.87-8.17,1.98c-9.66.21-20.13.55-31.31,1.06l-2.64-1.37.16,1.48c-1.95.09-3.93.19-5.92.29l-9.27-2-.05.21,5.18,2.01c-1.89.1-3.8.21-5.72.32.37.05,143.95,18.75,106.89,21.49-37.11,2.73-129.36,2.18-112.85,7.05s83.87,17.22,52.42,21.77c-31.45,4.55-207.14,19.56-207.14,19.56l20.71-6.32-118.24-10.32-99.7-3.85,90,14.16s-234.98,7.61-206.6,5.23c28.39-2.38,13.35-40.48-68.51-42.51C.31,29.84,78.8,8.4,123.12,6.04c1.26-.07,2.48-.18,3.67-.32-2.27-.13-4.52-.26-6.74-.39l-7.77-2.33,3.72,2.11c-3.84-.2-7.6-.38-11.28-.54l3.38-1.79-7.63,1.62c-7.76-.32-15.15-.55-22.14-.72l-8.15-2.05,3.58,1.94c-2.43-.05-4.82-.09-7.15-.13l-2.55-.44v.4c-3.92-.05-7.68-.09-11.28-.1l4.89-2.42-9.39,2.4c-4.36,0-8.46.02-12.28.06L23.45,0l7.62,3.42c-3.4.05-6.54.11-9.41.19l-4.59-1.65.42,1.76c-4.18.12-7.66.26-10.38.38l3.06-2.14-4.56,2.21c-3.68.17-5.61.3-5.61.3v157.94h750.02V4.47s-.09,0-.25-.02l.25-.92-1.35.85Z"/>
      <path class="cls-4" d="M267.28,54.99l126.53,12.85-128.57,22.29h226.27l-105.14-3.8,84.73-15.83-104.12-11.66,74.59-6.78-54.34-12.69c-4.06.94-8.13,1.9-12.21,2.88l37.22,7.6-144.95,5.13Z"/>
      <path class="cls-1" d="M267.28,54.99l126.53,12.85-128.57,22.29h226.27l-105.14-3.8,84.73-15.83-104.12-11.66,74.59-6.78-54.34-12.69c-4.06.94-8.13,1.9-12.21,2.88l37.22,7.6-144.95,5.13Z"/>
      <path class="cls-3" d="M267.28,54.99l126.53,12.85-128.57,22.29h226.27l-105.14-3.8,84.73-15.83-104.12-11.66,74.59-6.78-54.34-12.69c-4.06.94-8.13,1.9-12.21,2.88l37.22,7.6-144.95,5.13Z"/>
      <path class="cls-2" d="M152.47,36.84l114.81,18.16,144.95-5.13-45.25,8.98,118.24,10.32,132.21-19.41-35.84-21.82,93.41-10.45-59.74-11.26c-.73.05-1.45.09-2.18.14l-.23-.6-1.76-.33-.71,1.11c-6.26.43-12.68.9-19.25,1.44l8.2-4.15-16.62,4.86c-6.02.53-12.17,1.1-18.42,1.72l-1.22-1.35-.36,1.51c-5.45.55-10.98,1.14-16.59,1.77l5.29-3.8-20.08,5.53c-1.47.18-2.95.36-4.43.55l-3.27-2,.82,2.31c-.77.1-1.55.2-2.32.3l-4.88-1.7,3.16,1.92c-7.15.93-14.41,1.93-21.77,3.01l4.49-2.14-17.38,4.08c-4.61.72-9.25,1.46-13.92,2.23l-2.33-1.2.93,1.44c-3.82.64-7.65,1.29-11.51,1.96l2.92-2.12-13.27,3.97c-.1.02-.2.04-.3.05l1.82-2.75-5.62,3.45c-3.82.71-7.67,1.44-11.53,2.19l-6.47-.67,3.43,1.26c-5,.99-10.03,2.01-15.09,3.06l5.28-5.37-13.12,7.03c-10.55,2.27-21.2,4.69-31.96,7.29-2.19-.53-4.37-1.05-6.56-1.56v-.04s-11.05-4.06-11.05-4.06l2.26,2.06c-5.1-1.17-10.18-2.29-15.24-3.39l-.53-.15h3.29l-10.52-1.54-17.37-3.53-6.32-3.5,2.47,2.78c-1.52-.29-3.04-.59-4.56-.87l-2.38-1.9.84,1.61c-3.36-.63-6.7-1.25-10.02-1.85l2.16-1.9-3.54,1.65c-4.36-.79-8.69-1.54-13-2.28l-4.78-1.97,1.45,1.4c-1.82-.31-3.63-.6-5.44-.9l-.36-1.51-.63,1.35c-2.23-.36-4.46-.72-6.68-1.07l-11.07-3.34,3.71,2.19c-3.81-.58-7.59-1.15-11.35-1.69l-.28-.06,3.45-1.34-8.35.66c-6.88-.97-13.66-1.88-20.35-2.72l-4.58-1.91,1.56,1.53c-2.74-.34-5.46-.67-8.17-.99l.95-.54h-5.55c-8.37-.97-16.56-1.84-24.57-2.63l-6.65-2.71,2.68,2.32c-3.05-.29-6.07-.57-9.07-.84l-5.36-2.63,2.99,2.42c-2.99-.26-5.95-.52-8.88-.76l.44-2.43-2.58,2.25c-2.19-.18-4.36-.35-6.51-.51l-3.32-.77-43.25,12,86.7,7.82-38.66,10.43Z"/>
    </g>
  </g>
</svg>