<?xml version="1.0" encoding="UTF-8"?>
<svg id="Layer_2" data-name="Layer 2" xmlns="http://www.w3.org/2000/svg" xmlns:xlink="http://www.w3.org/1999/xlink" viewBox="0 0 750 110.7">
  <defs>
    <style>
      .cls-1 {
        fill: url(#linear-gradient-2);
      }

      .cls-2 {
        fill: #3b295e;
      }

      .cls-3 {
        fill: #311e56;
      }

      .cls-4 {
        fill: url(#linear-gradient);
      }
    </style>
    <linearGradient id="linear-gradient" x1="359.49" y1="29.47" x2="359.49" y2="110.7" gradientUnits="userSpaceOnUse">
      <stop offset="0" stop-color="#d777dd" stop-opacity=".1"/>
      <stop offset=".44" stop-color="#d777dd" stop-opacity="0"/>
    </linearGradient>
    <linearGradient id="linear-gradient-2" x1="375" y1="110.7" x2="375" y2="0" gradientUnits="userSpaceOnUse">
      <stop offset="0" stop-color="#0c0108" stop-opacity=".7"/>
      <stop offset=".86" stop-color="#332051" stop-opacity="0"/>
    </linearGradient>
  </defs>
  <g id="OBJECTS">
    <g>
      <path class="cls-3" d="M698.42,64.48c7.39-3.46,15.03-.08,15.03-.08-10.98-7.73-22.6-4.52-22.6-4.52,6-4.85,12.38-3.77,12.38-3.77-7.28-3.13-16.34,1.26-16.34,1.26l1.53-2.4-4.85,4.91-20.91-2.64,2.5-2.73-6.01,2.51c-.62-.11-1.24-.22-1.86-.33l-14.56-6.05v2.34l-6.24-1.53,5.85-2.8-26.92,1.05c-11.88-1.85-24.33-3.67-37.25-5.43l-3.88-1.86-16.21-7.14,2.71,4.83-10.71-1.55,6.72-9.08-11.75,10.18-7.22-2.85,5.93-2.16-35.99-1.77c-2.3-23.69-13.29-29.81-13.29-29.81,3.55,7.13.79,24.78.79,24.78-4.6-23.23-18.51-27.83-18.51-27.83,8.17,5.74,10.72,30.38,10.72,30.38l-9.06-8.24,4.72,9.11c-11.11-9.34-22.34-1.79-22.34-1.79,10.6-3.34,21.07,4.41,21.07,4.41-34.61-2.72-70.65-4.41-106.88-4.41-25.25,0-50.4.82-75.04,2.24h0l-14.55-.92c6.85-5.09,10.34-4.74,10.34-4.74-12.64-3.45-24.89,5.66-24.89,5.66,5.85-5.85,16.34-10.16,16.34-10.16-10.21,0-24.26,8.58-24.26,8.58,3.32-15.97,14.81-23.99,14.81-23.99-11.62,3.7-20.94,18.98-20.94,18.98-1.15-11.66,2.17-22.63,2.17-22.63-4.98,6.18-9.07,30.15-9.07,30.15l-10.56-.93L56.26,62.71c-6.26-7.63-19.15-12.08-19.15-12.08,3.83,2.37,9.19,12.9,9.19,12.9-8.43-3.75-19.28-.82-19.28-.82,4.76,0,10.48,2.38,13.78,3.98C14.99,72.06,0,75.81,0,75.81v34.89h750v-34.89s-19.2-4.81-51.58-11.34Z"/>
      <g>
        <path class="cls-2" d="M521.28,96.36l-7.07-2.49,3.35.43-10.82-6,7.47,9.83-14.48-13.72-18.07-10.02-15.1-3.68,4.94-.63-13.11-2.59,13.11,1.27-26.57-14.73,4.44,7.81-9.74-10.75-13.11-7.27,11.67-2.1-5.49-3.35,8.06,2.89,8.14-1.46-1.91-1.08,12-.73,22.89-4.12c-34.61-2.72-70.65-4.41-106.88-4.41-25.25,0-50.4.82-75.04,2.24h0s-14.61,2.84-14.61,2.84l2.14.25h-3.42l-18.71,3.64,33.01,1.42,6.48-2.05-3.44,2.19,21.95.95-7.61,3.5,4.43.98h-6.56l-14.31,6.59-7.56,5.36.08-1.91-1.61.74-1.87,3.29-1.39-1.79-8.8,4.05-11.42,7.78,2.86-3.83-47.62,21.92,14.62-1.23-17.26,2.44-7.39,3.4,2.32.97h-4.42l-38.03,17.51h375.35l-25.88-14.34Z"/>
        <path class="cls-4" d="M521.28,96.36l-7.07-2.49,3.35.43-10.82-6,7.47,9.83-14.48-13.72-18.07-10.02-15.1-3.68,4.94-.63-13.11-2.59,13.11,1.27-26.57-14.73,4.44,7.81-9.74-10.75-13.11-7.27,11.67-2.1-5.49-3.35,8.06,2.89,8.14-1.46-1.91-1.08,12-.73,22.89-4.12c-34.61-2.72-70.65-4.41-106.88-4.41-25.25,0-50.4.82-75.04,2.24h0s-14.61,2.84-14.61,2.84l2.14.25h-3.42l-18.71,3.64,33.01,1.42,6.48-2.05-3.44,2.19,21.95.95-7.61,3.5,4.43.98h-6.56l-14.31,6.59-7.56,5.36.08-1.91-1.61.74-1.87,3.29-1.39-1.79-8.8,4.05-11.42,7.78,2.86-3.83-47.62,21.92,14.62-1.23-17.26,2.44-7.39,3.4,2.32.97h-4.42l-38.03,17.51h375.35l-25.88-14.34Z"/>
      </g>
      <path class="cls-1" d="M698.42,64.48c7.39-3.46,15.03-.08,15.03-.08-10.98-7.73-22.6-4.52-22.6-4.52,6-4.85,12.38-3.77,12.38-3.77-7.28-3.13-16.34,1.26-16.34,1.26l1.53-2.4-4.85,4.91-20.91-2.64,2.5-2.73-6.01,2.51c-.62-.11-1.24-.22-1.86-.33l-14.56-6.05v2.34l-6.24-1.53,5.85-2.8-26.92,1.05c-11.88-1.85-24.33-3.67-37.25-5.43l-3.88-1.86-16.21-7.14,2.71,4.83-10.71-1.55,6.72-9.08-11.75,10.18-7.22-2.85,5.93-2.16-35.99-1.77c-2.3-23.69-13.29-29.81-13.29-29.81,3.55,7.13.79,24.78.79,24.78-4.6-23.23-18.51-27.83-18.51-27.83,8.17,5.74,10.72,30.38,10.72,30.38l-9.06-8.24,4.72,9.11c-11.11-9.34-22.34-1.79-22.34-1.79,10.6-3.34,21.07,4.41,21.07,4.41-34.61-2.72-70.65-4.41-106.88-4.41-25.25,0-50.4.82-75.04,2.24h0l-14.55-.92c6.85-5.09,10.34-4.74,10.34-4.74-12.64-3.45-24.89,5.66-24.89,5.66,5.85-5.85,16.34-10.16,16.34-10.16-10.21,0-24.26,8.58-24.26,8.58,3.32-15.97,14.81-23.99,14.81-23.99-11.62,3.7-20.94,18.98-20.94,18.98-1.15-11.66,2.17-22.63,2.17-22.63-4.98,6.18-9.07,30.15-9.07,30.15l-10.56-.93L56.26,62.71c-6.26-7.63-19.15-12.08-19.15-12.08,3.83,2.37,9.19,12.9,9.19,12.9-8.43-3.75-19.28-.82-19.28-.82,4.76,0,10.48,2.38,13.78,3.98C14.99,72.06,0,75.81,0,75.81v34.89h750v-34.89s-19.2-4.81-51.58-11.34Z"/>
    </g>
  </g>
</svg>