<?xml version="1.0" encoding="UTF-8"?>
<svg id="Layer_2" data-name="Layer 2" xmlns="http://www.w3.org/2000/svg" xmlns:xlink="http://www.w3.org/1999/xlink" viewBox="0 0 750 500">
  <defs>
    <style>
      .cls-1 {
        fill: url(#linear-gradient-2);
      }

      .cls-2 {
        fill: none;
      }

      .cls-3 {
        fill: #3e2d72;
      }

      .cls-4 {
        fill: url(#linear-gradient);
      }

      .cls-5 {
        clip-path: url(#clippath);
      }
    </style>
    <clipPath id="clippath">
      <rect class="cls-2" width="750" height="500"/>
    </clipPath>
    <linearGradient id="linear-gradient" x1="694.11" y1="367.94" x2="694.11" y2="162.43" gradientUnits="userSpaceOnUse">
      <stop offset="0" stop-color="#0c0108" stop-opacity=".5"/>
      <stop offset=".6" stop-color="#332051" stop-opacity="0"/>
    </linearGradient>
    <linearGradient id="linear-gradient-2" x1="-4826.41" x2="-4826.41" y2="162.43" gradientTransform="translate(-4770.5) rotate(-180) scale(1 -1)" xlink:href="#linear-gradient"/>
  </defs>
  <g id="OBJECTS">
    <g class="cls-5">
      <g>
        <g>
          <path class="cls-3" d="M755.27,314.19c18.92,9.26,36.96,1.95,36.96,1.95-4.55,0-9.34-3.09-9.34-3.09,6.17-.89,9.91-3.57,9.91-3.57h-3.57c4.47-2.52,7.88-5.69,7.88-5.69-10.64,2.44-26.64-2.44-26.64-2.44,5.36.89,13.56-1.95,13.56-1.95-8.28,0-14.38-4.63-14.38-4.63,5.44-.65,9.83-1.71,9.83-1.71l-4.06-.97c7.15-.97,10.23-3.98,10.23-3.98-11.86,0-20.14-12.51-20.14-12.51,11.21-.49,16.89-4.14,16.89-4.14h-5.6c7.15-1.38,9.5-3.74,9.5-3.74-9.83,1.38-17.71-6.09-17.71-6.09l3.17-.97c-12.26-2.19-18.44-11.7-18.44-11.7,9.5,7.8,25.02,2.84,25.02,2.84-8.93,0-18.36-10.23-18.36-10.23,8.85.97,12.18,0,12.18,0-4.55-.73-11.78-7.88-11.78-7.88h3.74c-4.55-2.19-10.15-8.77-10.15-8.77,5.77,4.39,17.06,2.27,17.06,2.27-7.55,0-11.78-7.15-11.78-7.15,3.41-.41,6.66-2.03,6.66-2.03-6.34.81-17.79-8.53-17.79-8.53,6.82,3.49,17.79,1.46,17.79,1.46-3.17,0-10.96-3.74-10.96-3.74,2.76-.65,4.71-2.11,4.71-2.11-4.06-1.38-9.67-7.23-9.67-7.23l1.3-1.46c-2.76-1.14-9.91-5.69-9.91-5.69,4.14,0,8.04-1.54,8.04-1.54-3.98-1.38-5.77-5.12-5.77-5.12l-5.12-1.3,2.52-4.3-3.33,1.71v-9.67l-3.17,1.67-1.1-6.82-.61,1.06-.77-3.98-.77,3.98-.61-1.06-1.1,6.82-3.17-1.67v9.67l-3.33-1.71,2.52,4.3-5.12,1.3s-1.79,3.74-5.77,5.12c0,0,3.9,1.54,8.04,1.54,0,0-7.15,4.55-9.91,5.69l1.3,1.46s-5.6,5.85-9.67,7.23c0,0,1.95,1.46,4.71,2.11,0,0-7.8,3.74-10.96,3.74,0,0,10.96,2.03,17.79-1.46,0,0-11.45,9.34-17.79,8.53,0,0,3.25,1.62,6.66,2.03,0,0-4.22,7.15-11.78,7.15,0,0,11.29,2.11,17.06-2.27,0,0-5.6,6.58-10.15,8.77h3.74s-7.23,7.15-11.78,7.88c0,0,3.33.97,12.18,0,0,0-9.42,10.23-18.36,10.23,0,0,15.51,4.95,25.02-2.84,0,0-5.55,8.52-16.55,11.28-2.59-.6-6.52-2.48-6.52-2.48,1.97-.46,3.36-1.51,3.36-1.51-2.89-.98-6.89-5.15-6.89-5.15l.93-1.04c-1.97-.81-7.06-4.05-7.06-4.05,2.95,0,5.73-1.1,5.73-1.1-2.84-.98-4.11-3.65-4.11-3.65l-3.65-.93,1.79-3.07-2.37,1.22v-6.89l-2.26,1.19-.78-4.86-.43.75-.55-2.84-.55,2.84-.43-.75-.78,4.86-2.26-1.19v6.89l-2.37-1.22,1.79,3.07-3.65.93s-1.27,2.66-4.11,3.65c0,0,2.78,1.1,5.73,1.1,0,0-5.09,3.24-7.06,4.05l.93,1.04s-3.99,4.17-6.89,5.15c0,0,1.39,1.04,3.36,1.51,0,0-5.56,2.66-7.81,2.66,0,0,7.81,1.45,12.68-1.04,0,0-8.16,6.66-12.68,6.08,0,0,2.32,1.16,4.75,1.45,0,0-3.01,5.09-8.39,5.09,0,0,8.05,1.51,12.16-1.62,0,0-3.99,4.69-7.24,6.25h2.66s-5.15,5.09-8.39,5.61c0,0,2.37.69,8.68,0,0,0-6.71,7.29-13.08,7.29,0,0,11.06,3.53,17.83-2.03,0,0-4.4,6.77-13.14,8.34l2.26.69s-3.09,2.93-7.55,4.04c-.53-.6-.81-1.07-.81-1.07,1.7-.2,3.32-1.01,3.32-1.01-3.16.41-8.87-4.25-8.87-4.25,3.4,1.74,8.87.73,8.87.73-1.58,0-5.47-1.86-5.47-1.86,1.38-.32,2.35-1.05,2.35-1.05-2.03-.69-4.82-3.61-4.82-3.61l.65-.73c-1.38-.57-4.94-2.84-4.94-2.84,2.07,0,4.01-.77,4.01-.77-1.98-.69-2.88-2.55-2.88-2.55l-2.55-.65,1.26-2.15-1.66.85v-4.82l-1.58.83-.55-3.4-.3.53-.38-1.98-.38,1.98-.3-.53-.55,3.4-1.58-.83v4.82l-1.66-.85,1.26,2.15-2.55.65s-.89,1.86-2.88,2.55c0,0,1.94.77,4.01.77,0,0-3.56,2.27-4.94,2.84l.65.73s-2.8,2.92-4.82,3.61c0,0,.97.73,2.35,1.05,0,0-3.89,1.86-5.47,1.86,0,0,5.47,1.01,8.87-.73,0,0-5.71,4.66-8.87,4.25,0,0,1.62.81,3.32,1.01,0,0-2.11,3.56-5.87,3.56,0,0,5.63,1.05,8.51-1.13,0,0-2.79,3.28-5.06,4.37h1.86s-3.61,3.56-5.87,3.93c0,0,1.66.49,6.08,0,0,0-4.7,5.1-9.15,5.1,0,0,7.74,2.47,12.48-1.42,0,0-3.08,4.74-9.2,5.83l1.58.49s-3.93,3.73-8.83,3.04c0,0,1.17,1.17,4.74,1.86h-2.8s2.84,1.82,8.43,2.07c0,0-4.13,6.24-10.05,6.24,0,0,1.54,1.5,5.1,1.98l-2.03.49s2.19.53,4.9.85c0,0-3.04,2.31-7.17,2.31,0,0,4.09,1.42,6.76.97,0,0-7.98,2.43-13.29,1.22,0,0,1.7,1.58,3.93,2.84h-1.78s1.86,1.34,4.94,1.78c0,0-2.39,1.54-4.66,1.54,0,0,8.99,3.65,18.43-.97,0,0-8.55,7.53-19.36,7.53,0,0,2.31,1.82,4.9,2.43l-1.78.2s1.94,1.98,7.09,2.27l-2.39,1.01s5.14,1.58,10.98-.57l-2.75,2.63s5.87-.12,8.26-1.99l-2.23,3.4,4.82-2.43v6.97h8.06v-6.97l4.82,2.43-2.23-3.4c2.39,1.86,8.26,1.99,8.26,1.99l-2.75-2.63c5.83,2.15,10.98.57,10.98.57l-2.39-1.01c5.14-.28,7.09-2.27,7.09-2.27l-1.78-.2c.32-.07.63-.17.94-.27,1.52-.06,8.47-.46,11.5-2.83l-3.18,4.86,6.89-3.47v9.96h11.52v-9.96l6.89,3.47-3.18-4.86c3.42,2.66,11.81,2.84,11.81,2.84l-3.94-3.76c8.34,3.07,15.69.81,15.69.81l-3.42-1.45c7.35-.41,10.13-3.24,10.13-3.24l-2.55-.29c3.7-.87,7-3.47,7-3.47-1.73,0-3.41-.15-5.05-.39,3.04-.58,6.2-1.52,8.18-3.06l-4.47,6.82,9.67-4.87v13.97h16.16v-13.97l9.67,4.87-4.47-6.82c4.79,3.74,16.57,3.98,16.57,3.98l-5.52-5.28c11.7,4.3,22.01,1.14,22.01,1.14l-4.79-2.03c10.32-.57,14.21-4.55,14.21-4.55l-3.57-.41c5.2-1.22,9.83-4.87,9.83-4.87-21.69,0-38.82-15.11-38.82-15.11ZM654.95,334.01s-2.75,2.41-7.26,4.95c-2.15-.34-3.83-1.18-4.71-1.71,3.69-.28,7.8-1.19,11.98-3.24ZM652.56,353.93c-.9-.07-1.78-.2-2.64-.37,1.36-.25,2.77-.62,4.22-1.15l-1.59,1.52ZM639.61,303.56h-3.64c-.89-.88-1.5-1.6-1.5-1.6,1.03.79,2.42,1.15,3.78,1.3.43.11.88.21,1.37.3ZM639.54,318.51c-.46-.23-.9-.48-1.3-.73.71.19,1.47.36,2.35.48l-1.05.25ZM641.75,320.27l1.11-.34c.59.09,1.2.17,1.84.25,0,0-.62.47-1.71,1.06-.78-.54-1.24-.96-1.24-.96ZM635.21,315.26c-.71-.76-1.07-1.31-1.07-1.31.58.48,1.21.86,1.86,1.16-.26.06-.53.11-.8.15ZM642.69,340.08c.92.15,2,.08,3.02-.07-.37.19-.75.38-1.14.56-1.15-.27-1.88-.5-1.88-.5ZM647.66,306.51s-2.63,3.95-6.88,6.59c-1.95-1.37-3.32-2.84-3.32-2.84,4.42.49,6.08,0,6.08,0-2.27-.36-5.87-3.93-5.87-3.93h1.86c-1.04-.5-2.18-1.45-3.12-2.35,1.53.75,5.3,2.27,11.25,2.52ZM702.36,318.26c.52-.07.98-.16,1.44-.26-.22.15-.44.29-.67.45l-.77-.19ZM708.89,314.19s-.45.39-1.27,1.04c-.24-.04-.48-.08-.71-.14.66-.28,1.32-.58,1.99-.91ZM691.36,282.26c.38.04.74.08,1.09.11-.18.15-.36.3-.54.44-.34-.34-.54-.55-.54-.55ZM695.25,279.73c-1.99-1.5-3.6-3.09-3.6-3.09h2.66c-.89-.43-1.84-1.1-2.74-1.84,2.05.39,4.4.69,7.09.8,0,0-1.23,1.85-3.41,4.12ZM698.25,320.17c.99-.12,1.93-.25,2.78-.39-.57.34-1.16.7-1.77,1.05-.64-.38-1-.66-1-.66ZM692.74,260.77l2.83.87s-1.57,1.48-4.17,3c-4.12-1.68-8.5-5.25-8.5-5.25,3,1.53,7.11,1.57,9.83,1.38ZM701.11,341.76c2.12-.35,4.35-.9,6.64-1.74l-3.14,3c-1.22-.38-2.38-.81-3.5-1.26Z"/>
          <path class="cls-4" d="M755.27,314.19c18.92,9.26,36.96,1.95,36.96,1.95-4.55,0-9.34-3.09-9.34-3.09,6.17-.89,9.91-3.57,9.91-3.57h-3.57c4.47-2.52,7.88-5.69,7.88-5.69-10.64,2.44-26.64-2.44-26.64-2.44,5.36.89,13.56-1.95,13.56-1.95-8.28,0-14.38-4.63-14.38-4.63,5.44-.65,9.83-1.71,9.83-1.71l-4.06-.97c7.15-.97,10.23-3.98,10.23-3.98-11.86,0-20.14-12.51-20.14-12.51,11.21-.49,16.89-4.14,16.89-4.14h-5.6c7.15-1.38,9.5-3.74,9.5-3.74-9.83,1.38-17.71-6.09-17.71-6.09l3.17-.97c-12.26-2.19-18.44-11.7-18.44-11.7,9.5,7.8,25.02,2.84,25.02,2.84-8.93,0-18.36-10.23-18.36-10.23,8.85.97,12.18,0,12.18,0-4.55-.73-11.78-7.88-11.78-7.88h3.74c-4.55-2.19-10.15-8.77-10.15-8.77,5.77,4.39,17.06,2.27,17.06,2.27-7.55,0-11.78-7.15-11.78-7.15,3.41-.41,6.66-2.03,6.66-2.03-6.34.81-17.79-8.53-17.79-8.53,6.82,3.49,17.79,1.46,17.79,1.46-3.17,0-10.96-3.74-10.96-3.74,2.76-.65,4.71-2.11,4.71-2.11-4.06-1.38-9.67-7.23-9.67-7.23l1.3-1.46c-2.76-1.14-9.91-5.69-9.91-5.69,4.14,0,8.04-1.54,8.04-1.54-3.98-1.38-5.77-5.12-5.77-5.12l-5.12-1.3,2.52-4.3-3.33,1.71v-9.67l-3.17,1.67-1.1-6.82-.61,1.06-.77-3.98-.77,3.98-.61-1.06-1.1,6.82-3.17-1.67v9.67l-3.33-1.71,2.52,4.3-5.12,1.3s-1.79,3.74-5.77,5.12c0,0,3.9,1.54,8.04,1.54,0,0-7.15,4.55-9.91,5.69l1.3,1.46s-5.6,5.85-9.67,7.23c0,0,1.95,1.46,4.71,2.11,0,0-7.8,3.74-10.96,3.74,0,0,10.96,2.03,17.79-1.46,0,0-11.45,9.34-17.79,8.53,0,0,3.25,1.62,6.66,2.03,0,0-4.22,7.15-11.78,7.15,0,0,11.29,2.11,17.06-2.27,0,0-5.6,6.58-10.15,8.77h3.74s-7.23,7.15-11.78,7.88c0,0,3.33.97,12.18,0,0,0-9.42,10.23-18.36,10.23,0,0,15.51,4.95,25.02-2.84,0,0-5.55,8.52-16.55,11.28-2.59-.6-6.52-2.48-6.52-2.48,1.97-.46,3.36-1.51,3.36-1.51-2.89-.98-6.89-5.15-6.89-5.15l.93-1.04c-1.97-.81-7.06-4.05-7.06-4.05,2.95,0,5.73-1.1,5.73-1.1-2.84-.98-4.11-3.65-4.11-3.65l-3.65-.93,1.79-3.07-2.37,1.22v-6.89l-2.26,1.19-.78-4.86-.43.75-.55-2.84-.55,2.84-.43-.75-.78,4.86-2.26-1.19v6.89l-2.37-1.22,1.79,3.07-3.65.93s-1.27,2.66-4.11,3.65c0,0,2.78,1.1,5.73,1.1,0,0-5.09,3.24-7.06,4.05l.93,1.04s-3.99,4.17-6.89,5.15c0,0,1.39,1.04,3.36,1.51,0,0-5.56,2.66-7.81,2.66,0,0,7.81,1.45,12.68-1.04,0,0-8.16,6.66-12.68,6.08,0,0,2.32,1.16,4.75,1.45,0,0-3.01,5.09-8.39,5.09,0,0,8.05,1.51,12.16-1.62,0,0-3.99,4.69-7.24,6.25h2.66s-5.15,5.09-8.39,5.61c0,0,2.37.69,8.68,0,0,0-6.71,7.29-13.08,7.29,0,0,11.06,3.53,17.83-2.03,0,0-4.4,6.77-13.14,8.34l2.26.69s-3.09,2.93-7.55,4.04c-.53-.6-.81-1.07-.81-1.07,1.7-.2,3.32-1.01,3.32-1.01-3.16.41-8.87-4.25-8.87-4.25,3.4,1.74,8.87.73,8.87.73-1.58,0-5.47-1.86-5.47-1.86,1.38-.32,2.35-1.05,2.35-1.05-2.03-.69-4.82-3.61-4.82-3.61l.65-.73c-1.38-.57-4.94-2.84-4.94-2.84,2.07,0,4.01-.77,4.01-.77-1.98-.69-2.88-2.55-2.88-2.55l-2.55-.65,1.26-2.15-1.66.85v-4.82l-1.58.83-.55-3.4-.3.53-.38-1.98-.38,1.98-.3-.53-.55,3.4-1.58-.83v4.82l-1.66-.85,1.26,2.15-2.55.65s-.89,1.86-2.88,2.55c0,0,1.94.77,4.01.77,0,0-3.56,2.27-4.94,2.84l.65.73s-2.8,2.92-4.82,3.61c0,0,.97.73,2.35,1.05,0,0-3.89,1.86-5.47,1.86,0,0,5.47,1.01,8.87-.73,0,0-5.71,4.66-8.87,4.25,0,0,1.62.81,3.32,1.01,0,0-2.11,3.56-5.87,3.56,0,0,5.63,1.05,8.51-1.13,0,0-2.79,3.28-5.06,4.37h1.86s-3.61,3.56-5.87,3.93c0,0,1.66.49,6.08,0,0,0-4.7,5.1-9.15,5.1,0,0,7.74,2.47,12.48-1.42,0,0-3.08,4.74-9.2,5.83l1.58.49s-3.93,3.73-8.83,3.04c0,0,1.17,1.17,4.74,1.86h-2.8s2.84,1.82,8.43,2.07c0,0-4.13,6.24-10.05,6.24,0,0,1.54,1.5,5.1,1.98l-2.03.49s2.19.53,4.9.85c0,0-3.04,2.31-7.17,2.31,0,0,4.09,1.42,6.76.97,0,0-7.98,2.43-13.29,1.22,0,0,1.7,1.58,3.93,2.84h-1.78s1.86,1.34,4.94,1.78c0,0-2.39,1.54-4.66,1.54,0,0,8.99,3.65,18.43-.97,0,0-8.55,7.53-19.36,7.53,0,0,2.31,1.82,4.9,2.43l-1.78.2s1.94,1.98,7.09,2.27l-2.39,1.01s5.14,1.58,10.98-.57l-2.75,2.63s5.87-.12,8.26-1.99l-2.23,3.4,4.82-2.43v6.97h8.06v-6.97l4.82,2.43-2.23-3.4c2.39,1.86,8.26,1.99,8.26,1.99l-2.75-2.63c5.83,2.15,10.98.57,10.98.57l-2.39-1.01c5.14-.28,7.09-2.27,7.09-2.27l-1.78-.2c.32-.07.63-.17.94-.27,1.52-.06,8.47-.46,11.5-2.83l-3.18,4.86,6.89-3.47v9.96h11.52v-9.96l6.89,3.47-3.18-4.86c3.42,2.66,11.81,2.84,11.81,2.84l-3.94-3.76c8.34,3.07,15.69.81,15.69.81l-3.42-1.45c7.35-.41,10.13-3.24,10.13-3.24l-2.55-.29c3.7-.87,7-3.47,7-3.47-1.73,0-3.41-.15-5.05-.39,3.04-.58,6.2-1.52,8.18-3.06l-4.47,6.82,9.67-4.87v13.97h16.16v-13.97l9.67,4.87-4.47-6.82c4.79,3.74,16.57,3.98,16.57,3.98l-5.52-5.28c11.7,4.3,22.01,1.14,22.01,1.14l-4.79-2.03c10.32-.57,14.21-4.55,14.21-4.55l-3.57-.41c5.2-1.22,9.83-4.87,9.83-4.87-21.69,0-38.82-15.11-38.82-15.11ZM654.95,334.01s-2.75,2.41-7.26,4.95c-2.15-.34-3.83-1.18-4.71-1.71,3.69-.28,7.8-1.19,11.98-3.24ZM652.56,353.93c-.9-.07-1.78-.2-2.64-.37,1.36-.25,2.77-.62,4.22-1.15l-1.59,1.52ZM639.61,303.56h-3.64c-.89-.88-1.5-1.6-1.5-1.6,1.03.79,2.42,1.15,3.78,1.3.43.11.88.21,1.37.3ZM639.54,318.51c-.46-.23-.9-.48-1.3-.73.71.19,1.47.36,2.35.48l-1.05.25ZM641.75,320.27l1.11-.34c.59.09,1.2.17,1.84.25,0,0-.62.47-1.71,1.06-.78-.54-1.24-.96-1.24-.96ZM635.21,315.26c-.71-.76-1.07-1.31-1.07-1.31.58.48,1.21.86,1.86,1.16-.26.06-.53.11-.8.15ZM642.69,340.08c.92.15,2,.08,3.02-.07-.37.19-.75.38-1.14.56-1.15-.27-1.88-.5-1.88-.5ZM647.66,306.51s-2.63,3.95-6.88,6.59c-1.95-1.37-3.32-2.84-3.32-2.84,4.42.49,6.08,0,6.08,0-2.27-.36-5.87-3.93-5.87-3.93h1.86c-1.04-.5-2.18-1.45-3.12-2.35,1.53.75,5.3,2.27,11.25,2.52ZM702.36,318.26c.52-.07.98-.16,1.44-.26-.22.15-.44.29-.67.45l-.77-.19ZM708.89,314.19s-.45.39-1.27,1.04c-.24-.04-.48-.08-.71-.14.66-.28,1.32-.58,1.99-.91ZM691.36,282.26c.38.04.74.08,1.09.11-.18.15-.36.3-.54.44-.34-.34-.54-.55-.54-.55ZM695.25,279.73c-1.99-1.5-3.6-3.09-3.6-3.09h2.66c-.89-.43-1.84-1.1-2.74-1.84,2.05.39,4.4.69,7.09.8,0,0-1.23,1.85-3.41,4.12ZM698.25,320.17c.99-.12,1.93-.25,2.78-.39-.57.34-1.16.7-1.77,1.05-.64-.38-1-.66-1-.66ZM692.74,260.77l2.83.87s-1.57,1.48-4.17,3c-4.12-1.68-8.5-5.25-8.5-5.25,3,1.53,7.11,1.57,9.83,1.38ZM701.11,341.76c2.12-.35,4.35-.9,6.64-1.74l-3.14,3c-1.22-.38-2.38-.81-3.5-1.26Z"/>
        </g>
        <g>
          <path class="cls-3" d="M-44.07,329.3s4.63,3.66,9.83,4.87l-3.57.41s3.9,3.98,14.21,4.55l-4.79,2.03s10.32,3.17,22.01-1.14l-5.52,5.28s11.78-.24,16.57-3.98l-4.47,6.82,9.67-4.87v13.97h16.16v-13.97l9.67,4.87-4.47-6.82c1.98,1.54,5.14,2.48,8.18,3.06-1.64.24-3.32.39-5.05.39,0,0,3.3,2.6,7,3.47l-2.55.29s2.78,2.84,10.13,3.24l-3.42,1.45s7.35,2.26,15.69-.81l-3.94,3.76s8.39-.17,11.81-2.84l-3.18,4.86,6.89-3.47v9.96h11.52v-9.96l6.89,3.47-3.18-4.86c3.03,2.37,9.98,2.77,11.5,2.83.31.11.62.2.94.27l-1.78.2s1.94,1.98,7.09,2.27l-2.39,1.01s5.14,1.58,10.98-.57l-2.75,2.63s5.87-.12,8.26-1.99l-2.23,3.4,4.82-2.43v6.97h8.06v-6.97l4.82,2.43-2.23-3.4c2.39,1.86,8.26,1.99,8.26,1.99l-2.75-2.63c5.83,2.15,10.98.57,10.98.57l-2.39-1.01c5.14-.28,7.09-2.27,7.09-2.27l-1.78-.2c2.59-.61,4.9-2.43,4.9-2.43-10.82,0-19.36-7.53-19.36-7.53,9.44,4.62,18.43.97,18.43.97-2.27,0-4.66-1.54-4.66-1.54,3.08-.45,4.94-1.78,4.94-1.78h-1.78c2.23-1.26,3.93-2.84,3.93-2.84-5.31,1.22-13.29-1.22-13.29-1.22,2.67.45,6.76-.97,6.76-.97-4.13,0-7.17-2.31-7.17-2.31,2.71-.32,4.9-.85,4.9-.85l-2.03-.49c3.56-.49,5.1-1.98,5.1-1.98-5.91,0-10.05-6.24-10.05-6.24,5.59-.24,8.43-2.07,8.43-2.07h-2.8c3.56-.69,4.74-1.86,4.74-1.86-4.9.69-8.83-3.04-8.83-3.04l1.58-.49c-6.12-1.09-9.2-5.83-9.2-5.83,4.74,3.89,12.48,1.42,12.48,1.42-4.46,0-9.15-5.1-9.15-5.1,4.42.49,6.08,0,6.08,0-2.27-.36-5.87-3.93-5.87-3.93h1.86c-2.27-1.09-5.06-4.37-5.06-4.37,2.88,2.19,8.51,1.13,8.51,1.13-3.77,0-5.87-3.56-5.87-3.56,1.7-.2,3.32-1.01,3.32-1.01-3.16.41-8.87-4.25-8.87-4.25,3.4,1.74,8.87.73,8.87.73-1.58,0-5.47-1.86-5.47-1.86,1.38-.32,2.35-1.05,2.35-1.05-2.03-.69-4.82-3.61-4.82-3.61l.65-.73c-1.38-.57-4.94-2.84-4.94-2.84,2.07,0,4.01-.77,4.01-.77-1.98-.69-2.88-2.55-2.88-2.55l-2.55-.65,1.26-2.15-1.66.85v-4.82l-1.58.83-.55-3.4-.3.53-.38-1.98-.38,1.98-.3-.53-.55,3.4-1.58-.83v4.82l-1.66-.85,1.26,2.15-2.55.65s-.89,1.86-2.88,2.55c0,0,1.94.77,4.01.77,0,0-3.56,2.27-4.94,2.84l.65.73s-2.8,2.92-4.82,3.61c0,0,.97.73,2.35,1.05,0,0-3.89,1.86-5.47,1.86,0,0,5.47,1.01,8.87-.73,0,0-5.71,4.66-8.87,4.25,0,0,1.62.81,3.32,1.01,0,0-.28.47-.81,1.07-4.46-1.11-7.55-4.04-7.55-4.04l2.26-.69c-8.74-1.56-13.14-8.34-13.14-8.34,6.77,5.56,17.83,2.03,17.83,2.03-6.37,0-13.08-7.29-13.08-7.29,6.31.69,8.68,0,8.68,0-3.24-.52-8.39-5.61-8.39-5.61h2.66c-3.24-1.56-7.24-6.25-7.24-6.25,4.11,3.13,12.16,1.62,12.16,1.62-5.38,0-8.39-5.09-8.39-5.09,2.43-.29,4.75-1.45,4.75-1.45-4.52.58-12.68-6.08-12.68-6.08,4.86,2.49,12.68,1.04,12.68,1.04-2.26,0-7.81-2.66-7.81-2.66,1.97-.46,3.36-1.51,3.36-1.51-2.89-.98-6.89-5.15-6.89-5.15l.93-1.04c-1.97-.81-7.06-4.05-7.06-4.05,2.95,0,5.73-1.1,5.73-1.1-2.84-.98-4.11-3.65-4.11-3.65l-3.65-.93,1.79-3.07-2.37,1.22v-6.89l-2.26,1.19-.78-4.86-.43.75-.55-2.84-.55,2.84-.43-.75-.78,4.86-2.26-1.19v6.89l-2.37-1.22,1.79,3.07-3.65.93s-1.27,2.66-4.11,3.65c0,0,2.78,1.1,5.73,1.1,0,0-5.09,3.24-7.06,4.05l.93,1.04s-3.99,4.17-6.89,5.15c0,0,1.39,1.04,3.36,1.51,0,0-3.92,1.88-6.52,2.48-11.01-2.76-16.55-11.28-16.55-11.28,9.5,7.8,25.02,2.84,25.02,2.84-8.93,0-18.36-10.23-18.36-10.23,8.85.97,12.18,0,12.18,0-4.55-.73-11.78-7.88-11.78-7.88h3.74c-4.55-2.19-10.15-8.77-10.15-8.77,5.77,4.39,17.06,2.27,17.06,2.27-7.55,0-11.78-7.15-11.78-7.15,3.41-.41,6.66-2.03,6.66-2.03-6.34.81-17.79-8.53-17.79-8.53,6.82,3.49,17.79,1.46,17.79,1.46-3.17,0-10.96-3.74-10.96-3.74,2.76-.65,4.71-2.11,4.71-2.11-4.06-1.38-9.67-7.23-9.67-7.23l1.3-1.46c-2.76-1.14-9.91-5.69-9.91-5.69,4.14,0,8.04-1.54,8.04-1.54-3.98-1.38-5.77-5.12-5.77-5.12l-5.12-1.3,2.52-4.3-3.33,1.71v-9.67l-3.17,1.67-1.1-6.82-.61,1.06-.77-3.98-.77,3.98-.61-1.06-1.1,6.82-3.17-1.67v9.67l-3.33-1.71,2.52,4.3-5.12,1.3s-1.79,3.74-5.77,5.12c0,0,3.9,1.54,8.04,1.54,0,0-7.15,4.55-9.91,5.69l1.3,1.46s-5.6,5.85-9.67,7.23c0,0,1.95,1.46,4.71,2.11,0,0-7.8,3.74-10.96,3.74,0,0,10.96,2.03,17.79-1.46,0,0-11.45,9.34-17.79,8.53,0,0,3.25,1.62,6.66,2.03,0,0-4.22,7.15-11.78,7.15,0,0,11.29,2.11,17.06-2.27,0,0-5.6,6.58-10.15,8.77h3.74s-7.23,7.15-11.78,7.88c0,0,3.33.97,12.18,0,0,0-9.42,10.23-18.36,10.23,0,0,15.51,4.95,25.02-2.84,0,0-6.17,9.5-18.44,11.7l3.17.97s-7.88,7.47-17.71,6.09c0,0,2.36,2.36,9.5,3.74h-5.6s5.69,3.66,16.89,4.14c0,0-8.28,12.51-20.14,12.51,0,0,3.09,3.01,10.23,3.98l-4.06.97s4.39,1.06,9.83,1.71c0,0-6.09,4.63-14.38,4.63,0,0,8.2,2.84,13.56,1.95,0,0-16,4.87-26.64,2.44,0,0,3.41,3.17,7.88,5.69h-3.57s3.74,2.68,9.91,3.57c0,0-4.79,3.09-9.34,3.09,0,0,18.03,7.31,36.96-1.95,0,0-17.14,15.11-38.82,15.11ZM107.05,337.24c-.88.53-2.57,1.37-4.71,1.71-4.51-2.54-7.26-4.95-7.26-4.95,4.18,2.04,8.29,2.95,11.98,3.24ZM95.88,352.41c1.45.53,2.87.9,4.22,1.15-.86.16-1.74.29-2.64.37l-1.59-1.52ZM111.78,303.25c1.36-.15,2.74-.51,3.78-1.3,0,0-.62.72-1.5,1.6h-3.64c.49-.1.94-.2,1.37-.3ZM109.43,318.26c.88-.12,1.64-.29,2.35-.48-.4.26-.84.5-1.3.73l-1.05-.25ZM107.03,321.23c-1.09-.59-1.71-1.06-1.71-1.06.64-.08,1.25-.16,1.84-.25l1.11.34s-.46.43-1.24.96ZM114.02,315.11c.65-.3,1.28-.68,1.86-1.16,0,0-.36.55-1.07,1.31-.27-.04-.53-.09-.8-.15ZM105.45,340.57c-.39-.19-.77-.37-1.14-.56,1.03.15,2.11.22,3.02.07,0,0-.73.22-1.88.5ZM113.61,303.99c-.94.89-2.08,1.85-3.12,2.35h1.86s-3.61,3.56-5.87,3.93c0,0,1.66.49,6.08,0,0,0-1.37,1.48-3.32,2.84-4.25-2.64-6.88-6.59-6.88-6.59,5.95-.26,9.72-1.77,11.25-2.52ZM46.89,318.45c-.23-.15-.45-.3-.67-.45.46.1.92.19,1.44.26l-.77.19ZM43.11,315.1c-.23.05-.47.09-.71.14-.83-.65-1.27-1.04-1.27-1.04.66.32,1.33.62,1.99.91ZM58.12,282.81c-.18-.15-.37-.3-.54-.44.35-.03.71-.07,1.09-.11,0,0-.2.22-.54.55ZM51.36,275.61c2.68-.12,5.04-.42,7.09-.8-.91.74-1.85,1.41-2.74,1.84h2.66s-1.61,1.59-3.6,3.09c-2.18-2.27-3.41-4.12-3.41-4.12ZM50.77,320.83c-.62-.35-1.21-.7-1.77-1.05.85.14,1.79.28,2.78.39,0,0-.36.27-1,.66ZM67.11,259.39s-4.38,3.56-8.5,5.25c-2.6-1.52-4.17-3-4.17-3l2.83-.87c2.72.2,6.83.16,9.83-1.38ZM45.4,343.02l-3.14-3c2.29.84,4.52,1.39,6.64,1.74-1.12.45-2.28.88-3.5,1.26Z"/>
          <path class="cls-1" d="M-44.07,329.3s4.63,3.66,9.83,4.87l-3.57.41s3.9,3.98,14.21,4.55l-4.79,2.03s10.32,3.17,22.01-1.14l-5.52,5.28s11.78-.24,16.57-3.98l-4.47,6.82,9.67-4.87v13.97h16.16v-13.97l9.67,4.87-4.47-6.82c1.98,1.54,5.14,2.48,8.18,3.06-1.64.24-3.32.39-5.05.39,0,0,3.3,2.6,7,3.47l-2.55.29s2.78,2.84,10.13,3.24l-3.42,1.45s7.35,2.26,15.69-.81l-3.94,3.76s8.39-.17,11.81-2.84l-3.18,4.86,6.89-3.47v9.96h11.52v-9.96l6.89,3.47-3.18-4.86c3.03,2.37,9.98,2.77,11.5,2.83.31.11.62.2.94.27l-1.78.2s1.94,1.98,7.09,2.27l-2.39,1.01s5.14,1.58,10.98-.57l-2.75,2.63s5.87-.12,8.26-1.99l-2.23,3.4,4.82-2.43v6.97h8.06v-6.97l4.82,2.43-2.23-3.4c2.39,1.86,8.26,1.99,8.26,1.99l-2.75-2.63c5.83,2.15,10.98.57,10.98.57l-2.39-1.01c5.14-.28,7.09-2.27,7.09-2.27l-1.78-.2c2.59-.61,4.9-2.43,4.9-2.43-10.82,0-19.36-7.53-19.36-7.53,9.44,4.62,18.43.97,18.43.97-2.27,0-4.66-1.54-4.66-1.54,3.08-.45,4.94-1.78,4.94-1.78h-1.78c2.23-1.26,3.93-2.84,3.93-2.84-5.31,1.22-13.29-1.22-13.29-1.22,2.67.45,6.76-.97,6.76-.97-4.13,0-7.17-2.31-7.17-2.31,2.71-.32,4.9-.85,4.9-.85l-2.03-.49c3.56-.49,5.1-1.98,5.1-1.98-5.91,0-10.05-6.24-10.05-6.24,5.59-.24,8.43-2.07,8.43-2.07h-2.8c3.56-.69,4.74-1.86,4.74-1.86-4.9.69-8.83-3.04-8.83-3.04l1.58-.49c-6.12-1.09-9.2-5.83-9.2-5.83,4.74,3.89,12.48,1.42,12.48,1.42-4.46,0-9.15-5.1-9.15-5.1,4.42.49,6.08,0,6.08,0-2.27-.36-5.87-3.93-5.87-3.93h1.86c-2.27-1.09-5.06-4.37-5.06-4.37,2.88,2.19,8.51,1.13,8.51,1.13-3.77,0-5.87-3.56-5.87-3.56,1.7-.2,3.32-1.01,3.32-1.01-3.16.41-8.87-4.25-8.87-4.25,3.4,1.74,8.87.73,8.87.73-1.58,0-5.47-1.86-5.47-1.86,1.38-.32,2.35-1.05,2.35-1.05-2.03-.69-4.82-3.61-4.82-3.61l.65-.73c-1.38-.57-4.94-2.84-4.94-2.84,2.07,0,4.01-.77,4.01-.77-1.98-.69-2.88-2.55-2.88-2.55l-2.55-.65,1.26-2.15-1.66.85v-4.82l-1.58.83-.55-3.4-.3.53-.38-1.98-.38,1.98-.3-.53-.55,3.4-1.58-.83v4.82l-1.66-.85,1.26,2.15-2.55.65s-.89,1.86-2.88,2.55c0,0,1.94.77,4.01.77,0,0-3.56,2.27-4.94,2.84l.65.73s-2.8,2.92-4.82,3.61c0,0,.97.73,2.35,1.05,0,0-3.89,1.86-5.47,1.86,0,0,5.47,1.01,8.87-.73,0,0-5.71,4.66-8.87,4.25,0,0,1.62.81,3.32,1.01,0,0-.28.47-.81,1.07-4.46-1.11-7.55-4.04-7.55-4.04l2.26-.69c-8.74-1.56-13.14-8.34-13.14-8.34,6.77,5.56,17.83,2.03,17.83,2.03-6.37,0-13.08-7.29-13.08-7.29,6.31.69,8.68,0,8.68,0-3.24-.52-8.39-5.61-8.39-5.61h2.66c-3.24-1.56-7.24-6.25-7.24-6.25,4.11,3.13,12.16,1.62,12.16,1.62-5.38,0-8.39-5.09-8.39-5.09,2.43-.29,4.75-1.45,4.75-1.45-4.52.58-12.68-6.08-12.68-6.08,4.86,2.49,12.68,1.04,12.68,1.04-2.26,0-7.81-2.66-7.81-2.66,1.97-.46,3.36-1.51,3.36-1.51-2.89-.98-6.89-5.15-6.89-5.15l.93-1.04c-1.97-.81-7.06-4.05-7.06-4.05,2.95,0,5.73-1.1,5.73-1.1-2.84-.98-4.11-3.65-4.11-3.65l-3.65-.93,1.79-3.07-2.37,1.22v-6.89l-2.26,1.19-.78-4.86-.43.75-.55-2.84-.55,2.84-.43-.75-.78,4.86-2.26-1.19v6.89l-2.37-1.22,1.79,3.07-3.65.93s-1.27,2.66-4.11,3.65c0,0,2.78,1.1,5.73,1.1,0,0-5.09,3.24-7.06,4.05l.93,1.04s-3.99,4.17-6.89,5.15c0,0,1.39,1.04,3.36,1.51,0,0-3.92,1.88-6.52,2.48-11.01-2.76-16.55-11.28-16.55-11.28,9.5,7.8,25.02,2.84,25.02,2.84-8.93,0-18.36-10.23-18.36-10.23,8.85.97,12.18,0,12.18,0-4.55-.73-11.78-7.88-11.78-7.88h3.74c-4.55-2.19-10.15-8.77-10.15-8.77,5.77,4.39,17.06,2.27,17.06,2.27-7.55,0-11.78-7.15-11.78-7.15,3.41-.41,6.66-2.03,6.66-2.03-6.34.81-17.79-8.53-17.79-8.53,6.82,3.49,17.79,1.46,17.79,1.46-3.17,0-10.96-3.74-10.96-3.74,2.76-.65,4.71-2.11,4.71-2.11-4.06-1.38-9.67-7.23-9.67-7.23l1.3-1.46c-2.76-1.14-9.91-5.69-9.91-5.69,4.14,0,8.04-1.54,8.04-1.54-3.98-1.38-5.77-5.12-5.77-5.12l-5.12-1.3,2.52-4.3-3.33,1.71v-9.67l-3.17,1.67-1.1-6.82-.61,1.06-.77-3.98-.77,3.98-.61-1.06-1.1,6.82-3.17-1.67v9.67l-3.33-1.71,2.52,4.3-5.12,1.3s-1.79,3.74-5.77,5.12c0,0,3.9,1.54,8.04,1.54,0,0-7.15,4.55-9.91,5.69l1.3,1.46s-5.6,5.85-9.67,7.23c0,0,1.95,1.46,4.71,2.11,0,0-7.8,3.74-10.96,3.74,0,0,10.96,2.03,17.79-1.46,0,0-11.45,9.34-17.79,8.53,0,0,3.25,1.62,6.66,2.03,0,0-4.22,7.15-11.78,7.15,0,0,11.29,2.11,17.06-2.27,0,0-5.6,6.58-10.15,8.77h3.74s-7.23,7.15-11.78,7.88c0,0,3.33.97,12.18,0,0,0-9.42,10.23-18.36,10.23,0,0,15.51,4.95,25.02-2.84,0,0-6.17,9.5-18.44,11.7l3.17.97s-7.88,7.47-17.71,6.09c0,0,2.36,2.36,9.5,3.74h-5.6s5.69,3.66,16.89,4.14c0,0-8.28,12.51-20.14,12.51,0,0,3.09,3.01,10.23,3.98l-4.06.97s4.39,1.06,9.83,1.71c0,0-6.09,4.63-14.38,4.63,0,0,8.2,2.84,13.56,1.95,0,0-16,4.87-26.64,2.44,0,0,3.41,3.17,7.88,5.69h-3.57s3.74,2.68,9.91,3.57c0,0-4.79,3.09-9.34,3.09,0,0,18.03,7.31,36.96-1.95,0,0-17.14,15.11-38.82,15.11ZM107.05,337.24c-.88.53-2.57,1.37-4.71,1.71-4.51-2.54-7.26-4.95-7.26-4.95,4.18,2.04,8.29,2.95,11.98,3.24ZM95.88,352.41c1.45.53,2.87.9,4.22,1.15-.86.16-1.74.29-2.64.37l-1.59-1.52ZM111.78,303.25c1.36-.15,2.74-.51,3.78-1.3,0,0-.62.72-1.5,1.6h-3.64c.49-.1.94-.2,1.37-.3ZM109.43,318.26c.88-.12,1.64-.29,2.35-.48-.4.26-.84.5-1.3.73l-1.05-.25ZM107.03,321.23c-1.09-.59-1.71-1.06-1.71-1.06.64-.08,1.25-.16,1.84-.25l1.11.34s-.46.43-1.24.96ZM114.02,315.11c.65-.3,1.28-.68,1.86-1.16,0,0-.36.55-1.07,1.31-.27-.04-.53-.09-.8-.15ZM105.45,340.57c-.39-.19-.77-.37-1.14-.56,1.03.15,2.11.22,3.02.07,0,0-.73.22-1.88.5ZM113.61,303.99c-.94.89-2.08,1.85-3.12,2.35h1.86s-3.61,3.56-5.87,3.93c0,0,1.66.49,6.08,0,0,0-1.37,1.48-3.32,2.84-4.25-2.64-6.88-6.59-6.88-6.59,5.95-.26,9.72-1.77,11.25-2.52ZM46.89,318.45c-.23-.15-.45-.3-.67-.45.46.1.92.19,1.44.26l-.77.19ZM43.11,315.1c-.23.05-.47.09-.71.14-.83-.65-1.27-1.04-1.27-1.04.66.32,1.33.62,1.99.91ZM58.12,282.81c-.18-.15-.37-.3-.54-.44.35-.03.71-.07,1.09-.11,0,0-.2.22-.54.55ZM51.36,275.61c2.68-.12,5.04-.42,7.09-.8-.91.74-1.85,1.41-2.74,1.84h2.66s-1.61,1.59-3.6,3.09c-2.18-2.27-3.41-4.12-3.41-4.12ZM50.77,320.83c-.62-.35-1.21-.7-1.77-1.05.85.14,1.79.28,2.78.39,0,0-.36.27-1,.66ZM67.11,259.39s-4.38,3.56-8.5,5.25c-2.6-1.52-4.17-3-4.17-3l2.83-.87c2.72.2,6.83.16,9.83-1.38ZM45.4,343.02l-3.14-3c2.29.84,4.52,1.39,6.64,1.74-1.12.45-2.28.88-3.5,1.26Z"/>
        </g>
      </g>
    </g>
  </g>
</svg>