<?xml version="1.0" encoding="UTF-8"?>
<svg id="Layer_2" data-name="Layer 2" xmlns="http://www.w3.org/2000/svg" xmlns:xlink="http://www.w3.org/1999/xlink" viewBox="0 0 176.98 57.98">
  <defs>
    <style>
      .cls-1 {
        fill: url(#linear-gradient-2);
      }

      .cls-2 {
        fill: #6c4a99;
      }

      .cls-3 {
        fill: url(#linear-gradient);
      }
    </style>
    <linearGradient id="linear-gradient" x1="34.49" y1="57.98" x2="34.49" y2="0" gradientUnits="userSpaceOnUse">
      <stop offset="0" stop-color="#0c0108" stop-opacity=".4"/>
      <stop offset=".86" stop-color="#332051" stop-opacity="0"/>
    </linearGradient>
    <linearGradient id="linear-gradient-2" x1="-74.14" y1="57.98" x2="-74.14" y2="0" gradientTransform="translate(68.36) rotate(-180) scale(1 -1)" xlink:href="#linear-gradient"/>
  </defs>
  <g id="OBJECTS">
    <g>
      <g>
        <path class="cls-2" d="M68.98,21.28l-.53.15-2.05,6.94-.61-1.76-.37.7.49,1.52-4.95,4.34,3.3-8.18-.79-3.08-.28.91.33,1.96-4.93,10.27-3.61,1.95-.42.95-2.97-6.29,1.67-2.44-.58-.52-.17.22,1.02-5.28,4.44-5.14-.25-.47-3.16,2.43-.17-1.01.95-5-.61-.66-.17.6-4.16-3.1-3.59-9.21-.35.24,2.87,8.65-.07.39-1.18.05-5.15-3.73-.21.26,5.05,4.27-.84.04.19.69,3.71.32,1.64,2.07-.84,7.48-.86-1.88-1.43-7.11-.31.32,1.36,13.45-1.72-3.75.29-2.18-.47.13-.08.91-1.54-8.14-.26.47,1.22,10.54,1.22,2.99-6.78-4.73-1.74-12.46-.33.62.06,6.1-2.23-3.47-.38.46,2.33,5.95.78,3.22-2.02-.64-1.9-2.27-1.57-5.9,3.4-4.13-.19-.67-.93.95-.58-1.89,3.84-8.19-.49.74-3.63,6.46-3.31-5.95-.31.43,3.07,6.31-.14,2.52-1.87,2.6-1.21-1.86-.52.58.31.94-1.21-1.11L27.63,0l-.48.43,2.12,7.49-2.1-2.57-.15.38,2.57,4.23.54,2.2-3.63-2.39L20.73.42l-.27.25,4.78,8.39-2.12-.38-3.95-4.74v.47s3.21,4.35,3.21,4.35l-1.64-.55-.21.48,5.08,1.77,2.26,1.63-.75-.09-.31,1.03,6.51,3.8,2.58,7.12s3.97,2.95,3.74,2.82c-.24-.13-6.37-2.27-6.37-2.27l-.35.58.57.72-9.44.48-5.1-5.91.67-1.05-.33-.48-.16.24.23-2-2.14-5.44-.08.51,1.66,4.66-.21,1.66-.85-1.29-.12.45.71,1.58-3.12-.75-3.2-4.84-.03.37,2.62,4.5-1.15-.04v.49s4,1.17,4,1.17l4.58,5.69-7.67-4.12-.21.26.5.83L.02,22.57l-.02.23,14.19.59,1.5,1.17-6.14,2.68-6.92-.06-.06.3,6.29.14-.46,1.54-3.6,1.99-2.72-.18,2.41.81,4.82-2.03.69-1.74,7.33-2.01,4.54,2.11-.51.15-.14.87,12.41-1.62,3.74.36-.49.34.41.42,1.7.43,1.38,1.99h-3.83s-4.78-2.62-4.78-2.62l-.12.1,3.99,2.74-1.09-.1-6.06-2.24-.13.23,5.64,2.42-.52.19.08.29,3.04-.15,4.03.75-.85.24.52.56,6.11,1.58,3.29,6.1.11.7-2.78-1.73-5.55-5.91-.45.08,1.97,2.97-1.71.09-3.34-1.27-.24-1.4-1.02-1.12-2.51.28-3.12-2.32-.06.32,2.62,2.16-4.03.42-4.81-2.7.08.36,4.77,3.03,6.49.26-.64.24-.15.53-4.22.73-5.51-1.68-1.87-2.14.6-.28-.18-.42-6.92-1.84.06.28,5.49,1.78s1.6,2.35,1.45,2.4c-.15.04-4.45-1.31-4.45-1.31l-3.27-.08.27.29,2.9.26,8.16,2.95.02.36-.7.09-3.35-.74.19.29,5.79,1.73,2.35-.22-1.02.57.73.77,4.3-1.28,5.31.7,3.84,2.08-.7.26,4.8,3.24,2.21,5.03-7.42-.35-1.45.42.21.33-1.37-.51-5.16-4.71-.19.23,3.48,3.42-5.27-1.29-.08.31,6.24,1.99,1.76,1.5,7.93,1.74,7.22,4.96,7.99-2.27-3.26-1.84-1.06.47-5.15-2.27.97-7.22-1.1-.75-.28.33,1.43-6.22,5.75-3.46-.39-.67-1.12.76,5.45-5.91,2.16-7.65Z"/>
        <path class="cls-3" d="M68.98,21.28l-.53.15-2.05,6.94-.61-1.76-.37.7.49,1.52-4.95,4.34,3.3-8.18-.79-3.08-.28.91.33,1.96-4.93,10.27-3.61,1.95-.42.95-2.97-6.29,1.67-2.44-.58-.52-.17.22,1.02-5.28,4.44-5.14-.25-.47-3.16,2.43-.17-1.01.95-5-.61-.66-.17.6-4.16-3.1-3.59-9.21-.35.24,2.87,8.65-.07.39-1.18.05-5.15-3.73-.21.26,5.05,4.27-.84.04.19.69,3.71.32,1.64,2.07-.84,7.48-.86-1.88-1.43-7.11-.31.32,1.36,13.45-1.72-3.75.29-2.18-.47.13-.08.91-1.54-8.14-.26.47,1.22,10.54,1.22,2.99-6.78-4.73-1.74-12.46-.33.62.06,6.1-2.23-3.47-.38.46,2.33,5.95.78,3.22-2.02-.64-1.9-2.27-1.57-5.9,3.4-4.13-.19-.67-.93.95-.58-1.89,3.84-8.19-.49.74-3.63,6.46-3.31-5.95-.31.43,3.07,6.31-.14,2.52-1.87,2.6-1.21-1.86-.52.58.31.94-1.21-1.11L27.63,0l-.48.43,2.12,7.49-2.1-2.57-.15.38,2.57,4.23.54,2.2-3.63-2.39L20.73.42l-.27.25,4.78,8.39-2.12-.38-3.95-4.74v.47s3.21,4.35,3.21,4.35l-1.64-.55-.21.48,5.08,1.77,2.26,1.63-.75-.09-.31,1.03,6.51,3.8,2.58,7.12s3.97,2.95,3.74,2.82c-.24-.13-6.37-2.27-6.37-2.27l-.35.58.57.72-9.44.48-5.1-5.91.67-1.05-.33-.48-.16.24.23-2-2.14-5.44-.08.51,1.66,4.66-.21,1.66-.85-1.29-.12.45.71,1.58-3.12-.75-3.2-4.84-.03.37,2.62,4.5-1.15-.04v.49s4,1.17,4,1.17l4.58,5.69-7.67-4.12-.21.26.5.83L.02,22.57l-.02.23,14.19.59,1.5,1.17-6.14,2.68-6.92-.06-.06.3,6.29.14-.46,1.54-3.6,1.99-2.72-.18,2.41.81,4.82-2.03.69-1.74,7.33-2.01,4.54,2.11-.51.15-.14.87,12.41-1.62,3.74.36-.49.34.41.42,1.7.43,1.38,1.99h-3.83s-4.78-2.62-4.78-2.62l-.12.1,3.99,2.74-1.09-.1-6.06-2.24-.13.23,5.64,2.42-.52.19.08.29,3.04-.15,4.03.75-.85.24.52.56,6.11,1.58,3.29,6.1.11.7-2.78-1.73-5.55-5.91-.45.08,1.97,2.97-1.71.09-3.34-1.27-.24-1.4-1.02-1.12-2.51.28-3.12-2.32-.06.32,2.62,2.16-4.03.42-4.81-2.7.08.36,4.77,3.03,6.49.26-.64.24-.15.53-4.22.73-5.51-1.68-1.87-2.14.6-.28-.18-.42-6.92-1.84.06.28,5.49,1.78s1.6,2.35,1.45,2.4c-.15.04-4.45-1.31-4.45-1.31l-3.27-.08.27.29,2.9.26,8.16,2.95.02.36-.7.09-3.35-.74.19.29,5.79,1.73,2.35-.22-1.02.57.73.77,4.3-1.28,5.31.7,3.84,2.08-.7.26,4.8,3.24,2.21,5.03-7.42-.35-1.45.42.21.33-1.37-.51-5.16-4.71-.19.23,3.48,3.42-5.27-1.29-.08.31,6.24,1.99,1.76,1.5,7.93,1.74,7.22,4.96,7.99-2.27-3.26-1.84-1.06.47-5.15-2.27.97-7.22-1.1-.75-.28.33,1.43-6.22,5.75-3.46-.39-.67-1.12.76,5.45-5.91,2.16-7.65Z"/>
      </g>
      <g>
        <path class="cls-2" d="M108,21.28l.53.15,2.05,6.94.61-1.76.37.7-.49,1.52,4.95,4.34-3.3-8.18.79-3.08.28.91-.33,1.96,4.93,10.27,3.61,1.95.42.95,2.97-6.29-1.67-2.44.58-.52.17.22-1.02-5.28-4.44-5.14.25-.47,3.16,2.43.17-1.01-.95-5,.61-.66.17.6,4.16-3.1,3.59-9.21.35.24-2.88,8.65.07.39,1.18.05,5.15-3.73.21.26-5.05,4.27.84.04-.19.69-3.71.32-1.64,2.07.84,7.48.86-1.88,1.43-7.11.31.32-1.36,13.45,1.72-3.75-.29-2.18.47.13.08.91,1.54-8.14.26.47-1.22,10.54-1.22,2.99,6.78-4.73,1.74-12.46.33.62-.06,6.1,2.23-3.47.38.46-2.33,5.95-.78,3.22,2.02-.64,1.9-2.27,1.57-5.9-3.4-4.13.19-.67.93.95.58-1.89-3.84-8.19.49.74,3.63,6.46,3.31-5.95.31.43-3.07,6.31.14,2.52,1.87,2.6,1.21-1.86.52.58-.31.94,1.21-1.11,3.87-13.18.48.43-2.12,7.49,2.1-2.57.15.38-2.57,4.23-.54,2.2,3.63-2.39,5.77-9.35.27.25-4.78,8.39,2.12-.38,3.95-4.74v.47s-3.21,4.35-3.21,4.35l1.64-.55.21.48-5.08,1.77-2.26,1.63.75-.09.31,1.03-6.51,3.8-2.58,7.12s-3.97,2.95-3.74,2.82c.24-.13,6.37-2.27,6.37-2.27l.35.58-.57.72,9.44.48,5.1-5.91-.67-1.05.33-.48.16.24-.23-2,2.14-5.44.08.51-1.66,4.66.21,1.66.85-1.29.12.45-.71,1.58,3.12-.75,3.2-4.84.03.37-2.62,4.5,1.15-.04v.49s-4,1.17-4,1.17l-4.58,5.69,7.67-4.12.21.26-.5.83,14.58-.2.02.23-14.19.59-1.5,1.17,6.14,2.68,6.92-.06.06.3-6.29.14.46,1.54,3.6,1.99,2.72-.18-2.41.81-4.82-2.03-.69-1.74-7.33-2.01-4.54,2.11.51.15.14.87-12.41-1.62-3.74.36.49.34-.41.42-1.7.43-1.38,1.99h3.83s4.78-2.62,4.78-2.62l.12.1-3.99,2.74,1.09-.1,6.06-2.24.13.23-5.64,2.42.52.19-.08.29-3.04-.15-4.03.75.85.24-.52.56-6.11,1.58-3.29,6.1-.11.7,2.78-1.73,5.55-5.91.45.08-1.97,2.97,1.71.09,3.34-1.27.24-1.4,1.02-1.12,2.51.28,3.12-2.32.06.32-2.62,2.16,4.03.42,4.81-2.7-.08.36-4.77,3.03-6.49.26.64.24.15.53,4.22.73,5.51-1.68,1.87-2.14-.6-.28.18-.42,6.92-1.84-.06.28-5.49,1.78s-1.6,2.35-1.45,2.4c.15.04,4.45-1.31,4.45-1.31l3.27-.08-.27.29-2.9.26-8.16,2.95-.02.36.7.09,3.35-.74-.19.29-5.79,1.73-2.35-.22,1.02.57-.73.77-4.3-1.28-5.31.7-3.84,2.08.7.26-4.8,3.24-2.21,5.03,7.42-.35,1.45.42-.21.33,1.37-.51,5.16-4.71.19.23-3.48,3.42,5.27-1.29.08.31-6.24,1.99-1.76,1.5-7.93,1.74-7.22,4.96-7.99-2.27,3.26-1.84,1.06.47,5.15-2.27-.97-7.22,1.1-.75.28.33-1.43-6.22-5.75-3.46.39-.67,1.12.76-5.45-5.91-2.16-7.65Z"/>
        <path class="cls-1" d="M108,21.28l.53.15,2.05,6.94.61-1.76.37.7-.49,1.52,4.95,4.34-3.3-8.18.79-3.08.28.91-.33,1.96,4.93,10.27,3.61,1.95.42.95,2.97-6.29-1.67-2.44.58-.52.17.22-1.02-5.28-4.44-5.14.25-.47,3.16,2.43.17-1.01-.95-5,.61-.66.17.6,4.16-3.1,3.59-9.21.35.24-2.88,8.65.07.39,1.18.05,5.15-3.73.21.26-5.05,4.27.84.04-.19.69-3.71.32-1.64,2.07.84,7.48.86-1.88,1.43-7.11.31.32-1.36,13.45,1.72-3.75-.29-2.18.47.13.08.91,1.54-8.14.26.47-1.22,10.54-1.22,2.99,6.78-4.73,1.74-12.46.33.62-.06,6.1,2.23-3.47.38.46-2.33,5.95-.78,3.22,2.02-.64,1.9-2.27,1.57-5.9-3.4-4.13.19-.67.93.95.58-1.89-3.84-8.19.49.74,3.63,6.46,3.31-5.95.31.43-3.07,6.31.14,2.52,1.87,2.6,1.21-1.86.52.58-.31.94,1.21-1.11,3.87-13.18.48.43-2.12,7.49,2.1-2.57.15.38-2.57,4.23-.54,2.2,3.63-2.39,5.77-9.35.27.25-4.78,8.39,2.12-.38,3.95-4.74v.47s-3.21,4.35-3.21,4.35l1.64-.55.21.48-5.08,1.77-2.26,1.63.75-.09.31,1.03-6.51,3.8-2.58,7.12s-3.97,2.95-3.74,2.82c.24-.13,6.37-2.27,6.37-2.27l.35.58-.57.72,9.44.48,5.1-5.91-.67-1.05.33-.48.16.24-.23-2,2.14-5.44.08.51-1.66,4.66.21,1.66.85-1.29.12.45-.71,1.58,3.12-.75,3.2-4.84.03.37-2.62,4.5,1.15-.04v.49s-4,1.17-4,1.17l-4.58,5.69,7.67-4.12.21.26-.5.83,14.58-.2.02.23-14.19.59-1.5,1.17,6.14,2.68,6.92-.06.06.3-6.29.14.46,1.54,3.6,1.99,2.72-.18-2.41.81-4.82-2.03-.69-1.74-7.33-2.01-4.54,2.11.51.15.14.87-12.41-1.62-3.74.36.49.34-.41.42-1.7.43-1.38,1.99h3.83s4.78-2.62,4.78-2.62l.12.1-3.99,2.74,1.09-.1,6.06-2.24.13.23-5.64,2.42.52.19-.08.29-3.04-.15-4.03.75.85.24-.52.56-6.11,1.58-3.29,6.1-.11.7,2.78-1.73,5.55-5.91.45.08-1.97,2.97,1.71.09,3.34-1.27.24-1.4,1.02-1.12,2.51.28,3.12-2.32.06.32-2.62,2.16,4.03.42,4.81-2.7-.08.36-4.77,3.03-6.49.26.64.24.15.53,4.22.73,5.51-1.68,1.87-2.14-.6-.28.18-.42,6.92-1.84-.06.28-5.49,1.78s-1.6,2.35-1.45,2.4c.15.04,4.45-1.31,4.45-1.31l3.27-.08-.27.29-2.9.26-8.16,2.95-.02.36.7.09,3.35-.74-.19.29-5.79,1.73-2.35-.22,1.02.57-.73.77-4.3-1.28-5.31.7-3.84,2.08.7.26-4.8,3.24-2.21,5.03,7.42-.35,1.45.42-.21.33,1.37-.51,5.16-4.71.19.23-3.48,3.42,5.27-1.29.08.31-6.24,1.99-1.76,1.5-7.93,1.74-7.22,4.96-7.99-2.27,3.26-1.84,1.06.47,5.15-2.27-.97-7.22,1.1-.75.28.33-1.43-6.22-5.75-3.46.39-.67,1.12.76-5.45-5.91-2.16-7.65Z"/>
      </g>
    </g>
  </g>
</svg>