<?xml version="1.0" encoding="UTF-8"?>
<svg id="Layer_2" data-name="Layer 2" xmlns="http://www.w3.org/2000/svg" viewBox="0 0 730.85 226.18">
  <defs>
    <style>
      .cls-1 {
        fill: #bd83ea;
      }
    </style>
  </defs>
  <g id="OBJECTS">
    <g>
      <path class="cls-1" d="M688.34,178.54c0,.21-.17.38-.38.38s-.38-.17-.38-.38.17-.38.38-.38.38.17.38.38Z"/>
      <path class="cls-1" d="M695.33,197.54c0,.3-.24.54-.54.54s-.54-.24-.54-.54.24-.54.54-.54.54.24.54.54Z"/>
      <path class="cls-1" d="M709.09,152.94c0,.12-.1.22-.22.22s-.22-.1-.22-.22.1-.22.22-.22.22.1.22.22Z"/>
      <path class="cls-1" d="M677.93,141.66c0,.16-.13.28-.28.28s-.28-.13-.28-.28.13-.28.28-.28.28.13.28.28Z"/>
      <path class="cls-1" d="M584.2,208.75c0,.2-.17.37-.37.37s-.37-.17-.37-.37.17-.37.37-.37.37.17.37.37Z"/>
      <path class="cls-1" d="M553.47,222.46c0,.23-.19.41-.41.41s-.41-.19-.41-.41.19-.41.41-.41.41.19.41.41Z"/>
      <path class="cls-1" d="M621.59,108.62c0,.18-.15.33-.33.33s-.33-.15-.33-.33.15-.33.33-.33.33.15.33.33Z"/>
      <path class="cls-1" d="M673.05,102.35c0,.24-.19.43-.43.43s-.43-.19-.43-.43.19-.43.43-.43.43.19.43.43Z"/>
      <path class="cls-1" d="M721.66,122.41c0,.18-.14.32-.32.32s-.32-.14-.32-.32.14-.32.32-.32.32.14.32.32Z"/>
      <path class="cls-1" d="M730.85,111.11c0,.28-.23.51-.51.51s-.51-.23-.51-.51.23-.51.51-.51.51.23.51.51Z"/>
      <path class="cls-1" d="M689.3,128.44c0,.26-.21.48-.48.48s-.48-.21-.48-.48.21-.48.48-.48.48.21.48.48Z"/>
      <path class="cls-1" d="M514.38,84.62c0,.22-.18.4-.4.4s-.4-.18-.4-.4.18-.4.4-.4.4.18.4.4Z"/>
      <circle class="cls-1" cx="596.18" cy="66.97" r=".52"/>
      <path class="cls-1" d="M586.85,89.15c0,.28-.23.51-.51.51s-.51-.23-.51-.51.23-.51.51-.51.51.23.51.51Z"/>
      <path class="cls-1" d="M461.23,175.26c0,.25-.2.45-.45.45s-.45-.2-.45-.45.2-.45.45-.45.45.2.45.45Z"/>
      <path class="cls-1" d="M487.15,183.72c0,.05-.04.1-.1.1s-.1-.04-.1-.1.04-.1.1-.1.1.04.1.1Z"/>
      <path class="cls-1" d="M40.72,131.92c0,.21-.17.38-.38.38s-.38-.17-.38-.38.17-.38.38-.38.38.17.38.38Z"/>
      <path class="cls-1" d="M5.2,124.72c0,.2-.16.37-.37.37s-.37-.16-.37-.37.16-.37.37-.37.37.16.37.37Z"/>
      <path class="cls-1" d="M30.63,198.92c0,.18-.14.32-.32.32s-.32-.14-.32-.32.14-.32.32-.32.32.14.32.32Z"/>
      <path class="cls-1" d="M123.83,214.13c0,.14-.11.25-.25.25s-.25-.11-.25-.25.11-.25.25-.25.25.11.25.25Z"/>
      <path class="cls-1" d="M145.82,225.65c0,.3-.24.54-.54.54s-.54-.24-.54-.54.24-.54.54-.54.54.24.54.54Z"/>
      <path class="cls-1" d="M171.72,212.99c0,.16-.13.29-.29.29s-.29-.13-.29-.29.13-.29.29-.29.29.13.29.29Z"/>
      <path class="cls-1" d="M246.38,180.56c0,.21-.17.38-.38.38s-.38-.17-.38-.38.17-.38.38-.38.38.17.38.38Z"/>
      <path class="cls-1" d="M234.43,183.1c0,.19-.15.34-.34.34s-.34-.15-.34-.34.15-.34.34-.34.34.15.34.34Z"/>
      <path class="cls-1" d="M239.73,114.87c0,.38-.31.7-.7.7s-.7-.31-.7-.7.31-.7.7-.7.7.31.7.7Z"/>
      <circle class="cls-1" cx="208.05" cy="82" r=".53"/>
      <path class="cls-1" d="M265.98,111.97c0,.33-.27.61-.61.61s-.61-.27-.61-.61.27-.61.61-.61.61.27.61.61Z"/>
      <circle class="cls-1" cx="296.98" cy="164.59" r=".43"/>
      <circle class="cls-1" cx="276.2" cy="208.81" r=".58"/>
      <path class="cls-1" d="M306.7,203.57c0,.3-.24.54-.54.54s-.54-.24-.54-.54.24-.54.54-.54.54.24.54.54Z"/>
      <path class="cls-1" d="M64.85,72.81c0,.23-.19.43-.43.43s-.43-.19-.43-.43.19-.43.43-.43.43.19.43.43Z"/>
      <path class="cls-1" d="M70.08,110.21c0,.21-.17.38-.38.38s-.38-.17-.38-.38.17-.38.38-.38.38.17.38.38Z"/>
      <path class="cls-1" d="M106.22,93.03c0,.33-.27.6-.6.6s-.6-.27-.6-.6.27-.6.6-.6.6.27.6.6Z"/>
      <path class="cls-1" d="M38.63,84.41c0,.33-.27.59-.59.59s-.59-.27-.59-.59.27-.59.59-.59.59.27.59.59Z"/>
      <path class="cls-1" d="M.85,72.81c0,.23-.19.43-.43.43s-.43-.19-.43-.43.19-.43.43-.43.43.19.43.43Z"/>
      <path class="cls-1" d="M132.6,27.79c0,.28-.23.51-.51.51s-.51-.23-.51-.51.23-.51.51-.51.51.23.51.51Z"/>
      <path class="cls-1" d="M132.6,51.11c0,.28-.23.51-.51.51s-.51-.23-.51-.51.23-.51.51-.51.51.23.51.51Z"/>
      <circle class="cls-1" cx="167.02" cy=".34" r=".34"/>
      <circle class="cls-1" cx="548.4" cy="23.01" r=".49"/>
      <circle class="cls-1" cx="622.05" cy="31.56" r=".46"/>
      <path class="cls-1" d="M682.72,39.79c0,.52-.42.94-.94.94s-.94-.42-.94-.94.42-.94.94-.94.94.42.94.94Z"/>
      <path class="cls-1" d="M728.46,66.57c0,.27-.22.48-.48.48s-.48-.22-.48-.48.22-.48.48-.48.48.22.48.48Z"/>
    </g>
  </g>
</svg>